<svg width="914" height="913" viewBox="0 0 914 913" fill="none" xmlns="http://www.w3.org/2000/svg">
<path d="M97.2741 397.755V515.234C87.3744 508.959 79.2211 500.285 73.5717 490.015C67.9223 479.746 64.96 468.215 64.96 456.495C64.96 444.774 67.9223 433.243 73.5717 422.974C79.2211 412.704 87.3744 404.03 97.2741 397.755Z" fill="#7E9ACF"/>
<path d="M166.063 518.482C156.295 523.462 145.482 526.051 134.517 526.034H132.834V455.615L166.063 518.482Z" fill="#7E9ACF"/>
<path d="M168.48 386.966V455.216L132.834 387.765L132.435 386.966H132.834H134.517H168.48Z" fill="#7E9ACF"/>
<path d="M204.04 386.966V456.5C204.06 464.42 202.717 472.285 200.07 479.75C194.441 495.665 183.212 508.988 168.48 517.23V386.966H204.04Z" fill="#78C7CE"/>
<path d="M132.834 455.616V526.013C120.204 525.734 107.891 522.003 97.2307 515.224V397.756C98.4714 396.957 99.7445 396.213 101.039 395.501L132.834 455.616Z" fill="#78C7CE"/>
<path d="M168.48 455.216V517.176C167.681 517.629 166.872 518.061 166.063 518.482L132.833 455.615L101.082 395.522C110.703 390.216 121.452 387.283 132.434 386.966L132.833 387.732L168.48 455.216Z" fill="#84CEBF"/>
<path d="M245.504 531.391V508.991H253.952C256.117 508.991 257.723 509.455 258.768 510.383C259.824 511.3 260.352 512.639 260.352 514.399C260.352 515.711 260.053 516.809 259.456 517.695C258.869 518.569 257.984 519.209 256.8 519.615V518.847C258.592 519.231 259.931 519.935 260.816 520.959C261.701 521.983 262.144 523.337 262.144 525.023C262.144 527.039 261.493 528.607 260.192 529.727C258.891 530.836 257.109 531.391 254.848 531.391H245.504ZM249.6 527.743H254.24C255.36 527.743 256.251 527.513 256.912 527.055C257.584 526.596 257.92 525.769 257.92 524.575C257.92 523.359 257.568 522.532 256.864 522.095C256.16 521.657 255.285 521.439 254.24 521.439H249.6V527.743ZM249.6 517.791H253.344C254.336 517.791 255.077 517.588 255.568 517.183C256.069 516.777 256.32 516.127 256.32 515.231C256.32 514.303 256.069 513.641 255.568 513.247C255.077 512.841 254.336 512.639 253.344 512.639H249.6V517.791ZM270.943 531.711C270.09 531.711 269.311 531.524 268.607 531.151C267.903 530.767 267.343 530.217 266.927 529.503C266.511 528.788 266.303 527.924 266.303 526.911C266.303 526.004 266.511 525.231 266.927 524.591C267.354 523.94 267.909 523.401 268.591 522.975C269.285 522.537 270.031 522.196 270.831 521.951C271.642 521.695 272.437 521.508 273.215 521.391C274.005 521.273 274.698 521.204 275.295 521.183C275.253 520.265 275.018 519.599 274.591 519.183C274.165 518.767 273.439 518.559 272.415 518.559C271.701 518.559 271.002 518.66 270.319 518.863C269.647 519.055 268.885 519.359 268.031 519.775L267.679 516.543C268.639 516.073 269.599 515.721 270.559 515.487C271.53 515.252 272.511 515.135 273.503 515.135C274.698 515.135 275.727 515.348 276.591 515.775C277.455 516.201 278.122 516.889 278.591 517.839C279.061 518.777 279.295 520.02 279.295 521.567V525.887C279.295 526.687 279.333 527.268 279.407 527.631C279.482 527.983 279.621 528.207 279.823 528.303C280.026 528.399 280.319 528.447 280.703 528.447H281.215L280.863 531.711H279.423C278.826 531.711 278.293 531.631 277.823 531.471C277.365 531.321 276.97 531.108 276.639 530.831C276.309 530.553 276.042 530.228 275.839 529.855C275.317 530.441 274.607 530.9 273.711 531.231C272.826 531.551 271.903 531.711 270.943 531.711ZM272.607 528.671C272.959 528.671 273.397 528.58 273.919 528.399C274.442 528.207 274.911 527.913 275.327 527.519V523.871C274.581 523.903 273.834 524.025 273.087 524.239C272.341 524.452 271.717 524.767 271.215 525.183C270.714 525.599 270.463 526.121 270.463 526.751C270.463 527.401 270.634 527.887 270.975 528.207C271.317 528.516 271.861 528.671 272.607 528.671ZM284.417 539.135L284.065 535.871C284.566 535.871 284.955 535.791 285.233 535.631C285.51 535.481 285.702 535.22 285.809 534.847C285.926 534.473 285.985 533.961 285.985 533.311V515.391H289.953V534.943C289.953 536.063 289.787 536.921 289.457 537.519C289.126 538.127 288.641 538.548 288.001 538.783C287.361 539.017 286.582 539.135 285.665 539.135H284.417ZM285.985 512.959V508.991H289.953V512.959H285.985ZM299.688 531.711C298.835 531.711 298.056 531.524 297.352 531.151C296.648 530.767 296.088 530.217 295.672 529.503C295.256 528.788 295.048 527.924 295.048 526.911C295.048 526.004 295.256 525.231 295.672 524.591C296.099 523.94 296.654 523.401 297.336 522.975C298.03 522.537 298.776 522.196 299.576 521.951C300.387 521.695 301.182 521.508 301.96 521.391C302.75 521.273 303.443 521.204 304.04 521.183C303.998 520.265 303.763 519.599 303.336 519.183C302.91 518.767 302.184 518.559 301.16 518.559C300.446 518.559 299.747 518.66 299.064 518.863C298.392 519.055 297.63 519.359 296.776 519.775L296.424 516.543C297.384 516.073 298.344 515.721 299.304 515.487C300.275 515.252 301.256 515.135 302.248 515.135C303.443 515.135 304.472 515.348 305.336 515.775C306.2 516.201 306.867 516.889 307.336 517.839C307.806 518.777 308.04 520.02 308.04 521.567V525.887C308.04 526.687 308.078 527.268 308.152 527.631C308.227 527.983 308.366 528.207 308.568 528.303C308.771 528.399 309.064 528.447 309.448 528.447H309.96L309.608 531.711H308.168C307.571 531.711 307.038 531.631 306.568 531.471C306.11 531.321 305.715 531.108 305.384 530.831C305.054 530.553 304.787 530.228 304.584 529.855C304.062 530.441 303.352 530.9 302.456 531.231C301.571 531.551 300.648 531.711 299.688 531.711ZM301.352 528.671C301.704 528.671 302.142 528.58 302.664 528.399C303.187 528.207 303.656 527.913 304.072 527.519V523.871C303.326 523.903 302.579 524.025 301.832 524.239C301.086 524.452 300.462 524.767 299.96 525.183C299.459 525.599 299.208 526.121 299.208 526.751C299.208 527.401 299.379 527.887 299.72 528.207C300.062 528.516 300.606 528.671 301.352 528.671ZM313.162 539.135L312.81 535.871C313.311 535.871 313.7 535.791 313.978 535.631C314.255 535.481 314.447 535.22 314.554 534.847C314.671 534.473 314.73 533.961 314.73 533.311V515.391H318.698V534.943C318.698 536.063 318.532 536.921 318.202 537.519C317.871 538.127 317.386 538.548 316.746 538.783C316.106 539.017 315.327 539.135 314.41 539.135H313.162ZM314.73 512.959V508.991H318.698V512.959H314.73ZM335.333 531.391V508.991H339.429V531.391H335.333ZM346.035 531.391V515.391H349.747L349.907 518.367L348.979 517.151C349.587 516.639 350.312 516.175 351.155 515.759C351.997 515.343 352.979 515.135 354.099 515.135C356.147 515.135 357.667 515.817 358.659 517.183C359.651 518.537 360.147 520.297 360.147 522.463V531.391H356.179V522.783C356.179 521.289 355.928 520.185 355.427 519.471C354.936 518.756 354.131 518.399 353.011 518.399C352.104 518.399 351.363 518.623 350.787 519.071C350.211 519.508 349.704 520.095 349.267 520.831L350.003 518.879V531.391H346.035ZM370.795 531.711C369.739 531.711 368.784 531.609 367.931 531.407C367.088 531.204 366.24 530.911 365.387 530.527L365.739 527.135C366.56 527.615 367.366 528.004 368.155 528.303C368.955 528.591 369.792 528.735 370.667 528.735C371.456 528.735 372.059 528.607 372.475 528.351C372.891 528.095 373.099 527.689 373.099 527.135C373.099 526.719 372.987 526.377 372.763 526.111C372.55 525.844 372.224 525.604 371.787 525.391C371.35 525.177 370.806 524.948 370.155 524.703C369.174 524.34 368.336 523.945 367.643 523.519C366.96 523.092 366.438 522.58 366.075 521.983C365.723 521.375 365.547 520.628 365.547 519.743C365.547 518.825 365.787 518.015 366.267 517.311C366.747 516.607 367.43 516.057 368.315 515.663C369.2 515.268 370.251 515.071 371.467 515.071C372.48 515.071 373.387 515.183 374.187 515.407C374.998 515.631 375.744 515.935 376.427 516.319L376.075 519.711C375.36 519.209 374.64 518.799 373.915 518.479C373.19 518.148 372.395 517.983 371.531 517.983C370.848 517.983 370.32 518.121 369.947 518.399C369.574 518.676 369.387 519.071 369.387 519.583C369.387 520.201 369.648 520.665 370.171 520.975C370.694 521.284 371.531 521.663 372.683 522.111C373.43 522.399 374.075 522.697 374.619 523.007C375.174 523.316 375.632 523.657 375.995 524.031C376.358 524.404 376.624 524.831 376.795 525.311C376.976 525.78 377.067 526.324 377.067 526.943C377.067 527.956 376.822 528.82 376.331 529.535C375.851 530.239 375.142 530.777 374.203 531.151C373.275 531.524 372.139 531.711 370.795 531.711ZM387.558 531.711C386.556 531.711 385.74 531.508 385.11 531.103C384.481 530.687 384.017 530.159 383.718 529.519C383.42 528.879 383.27 528.212 383.27 527.519V518.655H380.998L381.35 515.391H383.27V511.871L387.238 511.455V515.391H390.758V518.655H387.238V525.887C387.238 526.697 387.286 527.284 387.382 527.647C387.478 527.999 387.697 528.223 388.038 528.319C388.38 528.404 388.924 528.447 389.67 528.447H390.758L390.406 531.711H387.558ZM395.902 531.391V515.391H399.87V531.391H395.902ZM395.902 512.959V508.991H399.87V512.959H395.902ZM411.366 531.711C410.363 531.711 409.547 531.508 408.918 531.103C408.288 530.687 407.824 530.159 407.526 529.519C407.227 528.879 407.078 528.212 407.078 527.519V518.655H404.806L405.158 515.391H407.078V511.871L411.046 511.455V515.391H414.566V518.655H411.046V525.887C411.046 526.697 411.094 527.284 411.19 527.647C411.286 527.999 411.504 528.223 411.846 528.319C412.187 528.404 412.731 528.447 413.478 528.447H414.566L414.214 531.711H411.366ZM426.334 531.711C424.67 531.711 423.342 531.38 422.35 530.719C421.358 530.057 420.643 529.151 420.206 527.999C419.768 526.836 419.55 525.503 419.55 523.999V515.391H423.518V523.999C423.518 525.481 423.763 526.585 424.254 527.311C424.755 528.025 425.566 528.383 426.686 528.383C427.582 528.383 428.323 528.169 428.91 527.743C429.507 527.316 430.003 526.719 430.398 525.951L429.694 527.967V515.391H433.662V531.391H429.95L429.758 528.607L430.622 529.727C430.238 530.217 429.63 530.671 428.798 531.087C427.976 531.503 427.155 531.711 426.334 531.711ZM445.142 531.711C444.139 531.711 443.323 531.508 442.694 531.103C442.065 530.687 441.601 530.159 441.302 529.519C441.003 528.879 440.854 528.212 440.854 527.519V518.655H438.582L438.934 515.391H440.854V511.871L444.822 511.455V515.391H448.342V518.655H444.822V525.887C444.822 526.697 444.87 527.284 444.966 527.647C445.062 527.999 445.281 528.223 445.622 528.319C445.963 528.404 446.507 528.447 447.254 528.447H448.342L447.99 531.711H445.142ZM461.198 531.711C459.267 531.711 457.657 531.327 456.366 530.559C455.086 529.78 454.126 528.756 453.486 527.487C452.846 526.207 452.526 524.809 452.526 523.295C452.526 521.833 452.825 520.484 453.422 519.247C454.03 518.009 454.915 517.017 456.078 516.271C457.241 515.513 458.659 515.135 460.334 515.135C461.87 515.135 463.15 515.449 464.174 516.079C465.198 516.708 465.966 517.551 466.478 518.607C466.99 519.652 467.246 520.809 467.246 522.079C467.246 522.431 467.225 522.788 467.182 523.151C467.139 523.503 467.075 523.871 466.99 524.255H456.654C456.803 525.247 457.113 526.052 457.582 526.671C458.062 527.279 458.643 527.727 459.326 528.015C460.019 528.303 460.761 528.447 461.55 528.447C462.478 528.447 463.342 528.329 464.142 528.095C464.942 527.849 465.678 527.529 466.35 527.135L466.542 530.495C465.934 530.815 465.177 531.097 464.27 531.343C463.363 531.588 462.339 531.711 461.198 531.711ZM456.75 521.567H463.214C463.214 521.087 463.123 520.607 462.942 520.127C462.761 519.636 462.457 519.225 462.03 518.895C461.614 518.564 461.049 518.399 460.334 518.399C459.31 518.399 458.505 518.697 457.918 519.295C457.331 519.892 456.942 520.649 456.75 521.567ZM489.526 531.711C487.788 531.711 486.305 531.332 485.078 530.575C483.852 529.817 482.913 528.809 482.262 527.551C481.622 526.292 481.302 524.916 481.302 523.423C481.302 521.919 481.622 520.532 482.262 519.263C482.913 517.993 483.852 516.98 485.078 516.223C486.305 515.455 487.788 515.071 489.526 515.071C491.265 515.071 492.748 515.455 493.974 516.223C495.201 516.98 496.134 517.993 496.774 519.263C497.425 520.532 497.75 521.919 497.75 523.423C497.75 524.916 497.425 526.292 496.774 527.551C496.134 528.809 495.201 529.817 493.974 530.575C492.748 531.332 491.265 531.711 489.526 531.711ZM489.526 528.447C490.86 528.447 491.884 527.983 492.598 527.055C493.324 526.116 493.686 524.905 493.686 523.423C493.686 521.919 493.324 520.697 492.598 519.759C491.884 518.809 490.86 518.335 489.526 518.335C488.204 518.335 487.18 518.809 486.454 519.759C485.729 520.697 485.366 521.919 485.366 523.423C485.366 524.905 485.729 526.116 486.454 527.055C487.18 527.983 488.204 528.447 489.526 528.447ZM503.845 531.391V518.655H501.573L501.925 515.391H503.845V511.999C503.845 510.591 504.261 509.471 505.093 508.639C505.935 507.807 507.141 507.391 508.709 507.391C509.221 507.391 509.69 507.417 510.117 507.471C510.554 507.524 510.949 507.593 511.301 507.679L510.949 510.879C510.789 510.825 510.613 510.788 510.421 510.767C510.229 510.735 509.989 510.719 509.701 510.719C509.125 510.719 508.666 510.873 508.325 511.183C507.983 511.492 507.813 511.999 507.813 512.703V515.391H511.333V518.655H507.813V531.391H503.845ZM531.027 531.391V512.959H524.691V508.991H541.459V512.959H535.123V531.391H531.027ZM551.714 531.711C549.784 531.711 548.173 531.327 546.882 530.559C545.602 529.78 544.642 528.756 544.002 527.487C543.362 526.207 543.042 524.809 543.042 523.295C543.042 521.833 543.341 520.484 543.938 519.247C544.546 518.009 545.432 517.017 546.594 516.271C547.757 515.513 549.176 515.135 550.85 515.135C552.386 515.135 553.666 515.449 554.69 516.079C555.714 516.708 556.482 517.551 556.994 518.607C557.506 519.652 557.762 520.809 557.762 522.079C557.762 522.431 557.741 522.788 557.698 523.151C557.656 523.503 557.592 523.871 557.506 524.255H547.17C547.32 525.247 547.629 526.052 548.098 526.671C548.578 527.279 549.16 527.727 549.842 528.015C550.536 528.303 551.277 528.447 552.066 528.447C552.994 528.447 553.858 528.329 554.658 528.095C555.458 527.849 556.194 527.529 556.866 527.135L557.058 530.495C556.45 530.815 555.693 531.097 554.786 531.343C553.88 531.588 552.856 531.711 551.714 531.711ZM547.266 521.567H553.73C553.73 521.087 553.64 520.607 553.458 520.127C553.277 519.636 552.973 519.225 552.546 518.895C552.13 518.564 551.565 518.399 550.85 518.399C549.826 518.399 549.021 518.697 548.434 519.295C547.848 519.892 547.458 520.649 547.266 521.567ZM570.455 531.711C568.62 531.711 567.079 531.337 565.831 530.591C564.594 529.833 563.655 528.831 563.015 527.583C562.386 526.324 562.071 524.937 562.071 523.423C562.071 521.897 562.386 520.505 563.015 519.247C563.644 517.977 564.588 516.964 565.847 516.207C567.106 515.449 568.684 515.071 570.583 515.071C571.479 515.071 572.29 515.172 573.015 515.375C573.74 515.567 574.359 515.807 574.871 516.095L574.551 519.295C574.06 519.039 573.506 518.825 572.887 518.655C572.279 518.484 571.639 518.399 570.967 518.399C569.431 518.399 568.242 518.863 567.399 519.791C566.556 520.719 566.135 521.929 566.135 523.423C566.135 524.841 566.567 526.036 567.431 527.007C568.295 527.967 569.463 528.447 570.935 528.447C571.564 528.447 572.183 528.356 572.791 528.175C573.41 527.983 574.007 527.721 574.583 527.391L574.935 530.751C574.38 531.039 573.708 531.268 572.919 531.439C572.14 531.62 571.319 531.711 570.455 531.711ZM580.122 531.391V507.391H584.09V517.727L583.194 517.023C583.866 516.553 584.596 516.121 585.386 515.727C586.175 515.332 587.119 515.135 588.218 515.135C589.626 515.135 590.772 515.449 591.658 516.079C592.543 516.697 593.194 517.561 593.61 518.671C594.026 519.769 594.234 521.044 594.234 522.495V531.391H590.266V522.783C590.266 521.289 590.026 520.185 589.546 519.471C589.066 518.756 588.282 518.399 587.194 518.399C586.266 518.399 585.503 518.617 584.906 519.055C584.319 519.481 583.802 520.063 583.354 520.799L584.09 518.655V531.391H580.122ZM600.339 531.391V515.391H604.051L604.211 518.367L603.283 517.151C603.891 516.639 604.616 516.175 605.459 515.759C606.301 515.343 607.283 515.135 608.403 515.135C610.451 515.135 611.971 515.817 612.963 517.183C613.955 518.537 614.451 520.297 614.451 522.463V531.391H610.483V522.783C610.483 521.289 610.232 520.185 609.731 519.471C609.24 518.756 608.435 518.399 607.315 518.399C606.408 518.399 605.667 518.623 605.091 519.071C604.515 519.508 604.008 520.095 603.571 520.831L604.307 518.879V531.391H600.339ZM627.819 531.711C626.08 531.711 624.597 531.332 623.371 530.575C622.144 529.817 621.205 528.809 620.555 527.551C619.915 526.292 619.595 524.916 619.595 523.423C619.595 521.919 619.915 520.532 620.555 519.263C621.205 517.993 622.144 516.98 623.371 516.223C624.597 515.455 626.08 515.071 627.819 515.071C629.557 515.071 631.04 515.455 632.267 516.223C633.493 516.98 634.427 517.993 635.067 519.263C635.717 520.532 636.043 521.919 636.043 523.423C636.043 524.916 635.717 526.292 635.067 527.551C634.427 528.809 633.493 529.817 632.267 530.575C631.04 531.332 629.557 531.711 627.819 531.711ZM627.819 528.447C629.152 528.447 630.176 527.983 630.891 527.055C631.616 526.116 631.979 524.905 631.979 523.423C631.979 521.919 631.616 520.697 630.891 519.759C630.176 518.809 629.152 518.335 627.819 518.335C626.496 518.335 625.472 518.809 624.747 519.759C624.021 520.697 623.659 521.919 623.659 523.423C623.659 524.905 624.021 526.116 624.747 527.055C625.472 527.983 626.496 528.447 627.819 528.447ZM645.461 531.711C644.511 531.711 643.733 531.524 643.125 531.151C642.527 530.767 642.085 530.26 641.797 529.631C641.509 528.991 641.365 528.287 641.365 527.519V507.391H645.333V525.887C645.333 526.74 645.381 527.348 645.477 527.711C645.583 528.063 645.775 528.276 646.053 528.351C646.33 528.415 646.73 528.447 647.253 528.447L646.901 531.711H645.461ZM659.439 531.711C657.7 531.711 656.217 531.332 654.991 530.575C653.764 529.817 652.825 528.809 652.175 527.551C651.535 526.292 651.215 524.916 651.215 523.423C651.215 521.919 651.535 520.532 652.175 519.263C652.825 517.993 653.764 516.98 654.991 516.223C656.217 515.455 657.7 515.071 659.439 515.071C661.177 515.071 662.66 515.455 663.887 516.223C665.113 516.98 666.047 517.993 666.687 519.263C667.337 520.532 667.663 521.919 667.663 523.423C667.663 524.916 667.337 526.292 666.687 527.551C666.047 528.809 665.113 529.817 663.887 530.575C662.66 531.332 661.177 531.711 659.439 531.711ZM659.439 528.447C660.772 528.447 661.796 527.983 662.511 527.055C663.236 526.116 663.599 524.905 663.599 523.423C663.599 521.919 663.236 520.697 662.511 519.759C661.796 518.809 660.772 518.335 659.439 518.335C658.116 518.335 657.092 518.809 656.367 519.759C655.641 520.697 655.279 521.919 655.279 523.423C655.279 524.905 655.641 526.116 656.367 527.055C657.092 527.983 658.116 528.447 659.439 528.447ZM679.321 539.455C677.827 539.455 676.521 539.268 675.401 538.895C674.291 538.532 673.427 538.009 672.809 537.327C672.201 536.644 671.897 535.828 671.897 534.879C671.897 534.079 672.115 533.364 672.553 532.735C673.001 532.116 673.646 531.572 674.489 531.103C674.062 530.847 673.721 530.527 673.465 530.143C673.209 529.759 673.081 529.321 673.081 528.831C673.081 528.319 673.225 527.876 673.513 527.503C673.811 527.119 674.201 526.815 674.681 526.591C673.87 526.015 673.257 525.279 672.841 524.383C672.425 523.476 672.217 522.495 672.217 521.439C672.217 520.287 672.467 519.231 672.969 518.271C673.47 517.3 674.201 516.527 675.161 515.951C676.131 515.364 677.315 515.071 678.713 515.071C679.438 515.071 680.105 515.161 680.713 515.343C681.331 515.524 681.881 515.775 682.361 516.095C682.681 515.913 683.145 515.753 683.753 515.615C684.361 515.465 685.038 515.391 685.785 515.391C685.966 515.391 686.137 515.391 686.297 515.391C686.467 515.391 686.638 515.391 686.809 515.391L686.553 517.887C686.318 517.887 686.078 517.887 685.833 517.887C685.598 517.887 685.358 517.887 685.113 517.887C685.017 517.887 684.889 517.887 684.729 517.887C684.569 517.887 684.398 517.897 684.217 517.919C684.537 518.409 684.777 518.959 684.937 519.567C685.097 520.175 685.177 520.799 685.177 521.439C685.177 522.591 684.926 523.652 684.425 524.623C683.934 525.583 683.209 526.356 682.249 526.943C681.289 527.519 680.11 527.807 678.713 527.807C678.414 527.807 678.126 527.785 677.849 527.743C677.571 527.7 677.294 527.647 677.017 527.583C676.782 527.679 676.665 527.849 676.665 528.095C676.665 528.383 676.841 528.601 677.193 528.751C677.545 528.9 678.094 529.033 678.841 529.151L681.593 529.503C683.31 529.727 684.654 530.212 685.625 530.959C686.606 531.705 687.097 532.767 687.097 534.143C687.097 535.209 686.787 536.137 686.169 536.927C685.561 537.727 684.675 538.345 683.513 538.783C682.35 539.231 680.953 539.455 679.321 539.455ZM679.481 536.447C680.825 536.447 681.843 536.281 682.537 535.951C683.23 535.62 683.577 535.113 683.577 534.431C683.577 533.823 683.331 533.375 682.841 533.087C682.361 532.799 681.593 532.575 680.537 532.415L677.033 531.903C676.51 532.105 676.073 532.383 675.721 532.735C675.369 533.097 675.193 533.567 675.193 534.143C675.193 534.921 675.571 535.497 676.329 535.871C677.086 536.255 678.137 536.447 679.481 536.447ZM678.713 524.863C679.662 524.863 680.377 524.553 680.857 523.935C681.347 523.305 681.593 522.473 681.593 521.439C681.593 520.393 681.347 519.561 680.857 518.943C680.377 518.324 679.662 518.015 678.713 518.015C677.753 518.015 677.027 518.324 676.537 518.943C676.046 519.561 675.801 520.393 675.801 521.439C675.801 522.473 676.046 523.305 676.537 523.935C677.027 524.553 677.753 524.863 678.713 524.863ZM692.856 539.135L696.408 530.335L689.752 515.391H694.168L698.264 525.695L702.424 515.391H706.84L696.824 539.135H692.856ZM712.37 535.231H710.514L711.89 531.391H710.258V527.039H714.418V531.007L712.37 535.231ZM734.899 531.391L728.595 508.991H732.851L737.331 524.895L742.323 508.991H745.171L750.355 524.479L754.643 508.991H758.899L752.339 531.391H748.723L743.731 516.447L738.771 531.391H734.899ZM765.803 531.711C764.95 531.711 764.171 531.524 763.467 531.151C762.763 530.767 762.203 530.217 761.787 529.503C761.371 528.788 761.163 527.924 761.163 526.911C761.163 526.004 761.371 525.231 761.787 524.591C762.214 523.94 762.769 523.401 763.451 522.975C764.145 522.537 764.891 522.196 765.691 521.951C766.502 521.695 767.297 521.508 768.075 521.391C768.865 521.273 769.558 521.204 770.155 521.183C770.113 520.265 769.878 519.599 769.451 519.183C769.025 518.767 768.299 518.559 767.275 518.559C766.561 518.559 765.862 518.66 765.179 518.863C764.507 519.055 763.745 519.359 762.891 519.775L762.539 516.543C763.499 516.073 764.459 515.721 765.419 515.487C766.39 515.252 767.371 515.135 768.363 515.135C769.558 515.135 770.587 515.348 771.451 515.775C772.315 516.201 772.982 516.889 773.451 517.839C773.921 518.777 774.155 520.02 774.155 521.567V525.887C774.155 526.687 774.193 527.268 774.267 527.631C774.342 527.983 774.481 528.207 774.683 528.303C774.886 528.399 775.179 528.447 775.563 528.447H776.075L775.723 531.711H774.283C773.686 531.711 773.153 531.631 772.683 531.471C772.225 531.321 771.83 531.108 771.499 530.831C771.169 530.553 770.902 530.228 770.699 529.855C770.177 530.441 769.467 530.9 768.571 531.231C767.686 531.551 766.763 531.711 765.803 531.711ZM767.467 528.671C767.819 528.671 768.257 528.58 768.779 528.399C769.302 528.207 769.771 527.913 770.187 527.519V523.871C769.441 523.903 768.694 524.025 767.947 524.239C767.201 524.452 766.577 524.767 766.075 525.183C765.574 525.599 765.323 526.121 765.323 526.751C765.323 527.401 765.494 527.887 765.835 528.207C766.177 528.516 766.721 528.671 767.467 528.671ZM780.845 531.391V515.391H784.557L784.653 517.087C785.058 516.639 785.629 516.191 786.365 515.743C787.101 515.295 787.906 515.071 788.781 515.071C789.037 515.071 789.271 515.092 789.485 515.135L789.197 519.039C788.962 518.975 788.727 518.932 788.493 518.911C788.269 518.889 788.045 518.879 787.821 518.879C787.149 518.879 786.535 519.033 785.981 519.343C785.426 519.652 785.037 520.031 784.813 520.479V531.391H780.845ZM800.15 531.711C798.529 531.711 797.163 531.332 796.054 530.575C794.955 529.817 794.123 528.809 793.558 527.551C793.003 526.292 792.726 524.916 792.726 523.423C792.726 521.929 793.003 520.553 793.558 519.295C794.123 518.036 794.955 517.028 796.054 516.271C797.163 515.513 798.529 515.135 800.15 515.135C801.323 515.135 802.315 515.332 803.126 515.727C803.937 516.111 804.651 516.607 805.27 517.215L804.31 518.047V507.391H808.278V531.391H804.534L804.342 528.671L805.494 529.503C804.747 530.185 803.974 530.724 803.174 531.119C802.374 531.513 801.366 531.711 800.15 531.711ZM800.726 528.447C801.601 528.447 802.315 528.233 802.87 527.807C803.425 527.38 803.835 526.793 804.102 526.047C804.369 525.289 804.502 524.415 804.502 523.423C804.502 522.431 804.369 521.561 804.102 520.815C803.835 520.057 803.425 519.465 802.87 519.039C802.315 518.612 801.601 518.399 800.726 518.399C799.894 518.399 799.185 518.612 798.598 519.039C798.011 519.465 797.563 520.057 797.254 520.815C796.945 521.561 796.79 522.431 796.79 523.423C796.79 524.415 796.945 525.289 797.254 526.047C797.563 526.793 798.011 527.38 798.598 527.807C799.185 528.233 799.894 528.447 800.726 528.447ZM814.495 531.391V507.391H818.463V517.727L817.567 517.023C818.239 516.553 818.97 516.121 819.759 515.727C820.549 515.332 821.493 515.135 822.591 515.135C823.999 515.135 825.146 515.449 826.031 516.079C826.917 516.697 827.567 517.561 827.983 518.671C828.399 519.769 828.607 521.044 828.607 522.495V531.391H824.639V522.783C824.639 521.289 824.399 520.185 823.919 519.471C823.439 518.756 822.655 518.399 821.567 518.399C820.639 518.399 819.877 518.617 819.279 519.055C818.693 519.481 818.175 520.063 817.727 520.799L818.463 518.655V531.391H814.495ZM838.168 531.711C837.315 531.711 836.536 531.524 835.832 531.151C835.128 530.767 834.568 530.217 834.152 529.503C833.736 528.788 833.528 527.924 833.528 526.911C833.528 526.004 833.736 525.231 834.152 524.591C834.579 523.94 835.134 523.401 835.816 522.975C836.51 522.537 837.256 522.196 838.056 521.951C838.867 521.695 839.662 521.508 840.44 521.391C841.23 521.273 841.923 521.204 842.52 521.183C842.478 520.265 842.243 519.599 841.816 519.183C841.39 518.767 840.664 518.559 839.64 518.559C838.926 518.559 838.227 518.66 837.544 518.863C836.872 519.055 836.11 519.359 835.256 519.775L834.904 516.543C835.864 516.073 836.824 515.721 837.784 515.487C838.755 515.252 839.736 515.135 840.728 515.135C841.923 515.135 842.952 515.348 843.816 515.775C844.68 516.201 845.347 516.889 845.816 517.839C846.286 518.777 846.52 520.02 846.52 521.567V525.887C846.52 526.687 846.558 527.268 846.632 527.631C846.707 527.983 846.846 528.207 847.048 528.303C847.251 528.399 847.544 528.447 847.928 528.447H848.44L848.088 531.711H846.648C846.051 531.711 845.518 531.631 845.048 531.471C844.59 531.321 844.195 531.108 843.864 530.831C843.534 530.553 843.267 530.228 843.064 529.855C842.542 530.441 841.832 530.9 840.936 531.231C840.051 531.551 839.128 531.711 838.168 531.711ZM839.832 528.671C840.184 528.671 840.622 528.58 841.144 528.399C841.667 528.207 842.136 527.913 842.552 527.519V523.871C841.806 523.903 841.059 524.025 840.312 524.239C839.566 524.452 838.942 524.767 838.44 525.183C837.939 525.599 837.688 526.121 837.688 526.751C837.688 527.401 837.859 527.887 838.2 528.207C838.542 528.516 839.086 528.671 839.832 528.671Z" fill="url(#paint0_linear_58_58)"/>
<path d="M245.21 459.619C245.21 455.362 246.161 451.559 248.062 448.211C250.005 444.822 252.629 442.197 255.936 440.337C259.284 438.436 263.025 437.485 267.158 437.485C271.994 437.485 276.231 438.725 279.868 441.205C283.505 443.685 286.047 447.116 287.494 451.497H277.512C276.52 449.431 275.115 447.881 273.296 446.847C271.519 445.814 269.452 445.297 267.096 445.297C264.575 445.297 262.322 445.897 260.338 447.095C258.395 448.253 256.866 449.906 255.75 452.055C254.675 454.205 254.138 456.726 254.138 459.619C254.138 462.471 254.675 464.993 255.75 467.183C256.866 469.333 258.395 471.007 260.338 472.205C262.322 473.363 264.575 473.941 267.096 473.941C269.452 473.941 271.519 473.425 273.296 472.391C275.115 471.317 276.52 469.746 277.512 467.679H287.494C286.047 472.102 283.505 475.553 279.868 478.033C276.272 480.472 272.035 481.691 267.158 481.691C263.025 481.691 259.284 480.761 255.936 478.901C252.629 477 250.005 474.375 248.062 471.027C246.161 467.679 245.21 463.877 245.21 459.619ZM310.16 481.877C306.853 481.877 303.877 481.154 301.232 479.707C298.587 478.219 296.499 476.132 294.97 473.445C293.482 470.759 292.738 467.659 292.738 464.145C292.738 460.632 293.503 457.532 295.032 454.845C296.603 452.159 298.731 450.092 301.418 448.645C304.105 447.157 307.101 446.413 310.408 446.413C313.715 446.413 316.711 447.157 319.398 448.645C322.085 450.092 324.193 452.159 325.722 454.845C327.293 457.532 328.078 460.632 328.078 464.145C328.078 467.659 327.272 470.759 325.66 473.445C324.089 476.132 321.94 478.219 319.212 479.707C316.525 481.154 313.508 481.877 310.16 481.877ZM310.16 474.313C311.731 474.313 313.198 473.941 314.562 473.197C315.967 472.412 317.083 471.255 317.91 469.725C318.737 468.196 319.15 466.336 319.15 464.145C319.15 460.88 318.282 458.379 316.546 456.643C314.851 454.866 312.764 453.977 310.284 453.977C307.804 453.977 305.717 454.866 304.022 456.643C302.369 458.379 301.542 460.88 301.542 464.145C301.542 467.411 302.348 469.932 303.96 471.709C305.613 473.445 307.68 474.313 310.16 474.313ZM332.213 464.021C332.213 460.549 332.895 457.47 334.259 454.783C335.664 452.097 337.566 450.03 339.963 448.583C342.36 447.137 345.026 446.413 347.961 446.413C350.193 446.413 352.322 446.909 354.347 447.901C356.372 448.852 357.984 450.133 359.183 451.745V435.439H367.987V481.319H359.183V476.235C358.108 477.93 356.6 479.294 354.657 480.327C352.714 481.361 350.462 481.877 347.899 481.877C345.006 481.877 342.36 481.133 339.963 479.645C337.566 478.157 335.664 476.07 334.259 473.383C332.895 470.655 332.213 467.535 332.213 464.021ZM359.245 464.145C359.245 462.037 358.832 460.239 358.005 458.751C357.178 457.222 356.062 456.065 354.657 455.279C353.252 454.453 351.743 454.039 350.131 454.039C348.519 454.039 347.031 454.432 345.667 455.217C344.303 456.003 343.187 457.16 342.319 458.689C341.492 460.177 341.079 461.955 341.079 464.021C341.079 466.088 341.492 467.907 342.319 469.477C343.187 471.007 344.303 472.185 345.667 473.011C347.072 473.838 348.56 474.251 350.131 474.251C351.743 474.251 353.252 473.859 354.657 473.073C356.062 472.247 357.178 471.089 358.005 469.601C358.832 468.072 359.245 466.253 359.245 464.145ZM380.867 442.879C379.337 442.879 378.056 442.404 377.023 441.453C376.031 440.461 375.535 439.242 375.535 437.795C375.535 436.349 376.031 435.15 377.023 434.199C378.056 433.207 379.337 432.711 380.867 432.711C382.396 432.711 383.657 433.207 384.649 434.199C385.682 435.15 386.199 436.349 386.199 437.795C386.199 439.242 385.682 440.461 384.649 441.453C383.657 442.404 382.396 442.879 380.867 442.879ZM385.145 446.971V481.319H376.465V446.971H385.145ZM412.754 446.475C416.846 446.475 420.153 447.777 422.674 450.381C425.196 452.944 426.456 456.54 426.456 461.169V481.319H417.776V462.347C417.776 459.619 417.094 457.532 415.73 456.085C414.366 454.597 412.506 453.853 410.15 453.853C407.753 453.853 405.852 454.597 404.446 456.085C403.082 457.532 402.4 459.619 402.4 462.347V481.319H393.72V446.971H402.4V451.249C403.558 449.761 405.025 448.604 406.802 447.777C408.621 446.909 410.605 446.475 412.754 446.475ZM448.165 446.413C450.727 446.413 452.98 446.93 454.923 447.963C456.865 448.955 458.395 450.257 459.511 451.869V446.971H468.253V481.567C468.253 484.75 467.612 487.581 466.331 490.061C465.049 492.583 463.127 494.567 460.565 496.013C458.002 497.501 454.902 498.245 451.265 498.245C446.387 498.245 442.378 497.109 439.237 494.835C436.137 492.562 434.38 489.462 433.967 485.535H442.585C443.039 487.106 444.011 488.346 445.499 489.255C447.028 490.206 448.867 490.681 451.017 490.681C453.538 490.681 455.584 489.917 457.155 488.387C458.725 486.899 459.511 484.626 459.511 481.567V476.235C458.395 477.847 456.845 479.191 454.861 480.265C452.918 481.34 450.686 481.877 448.165 481.877C445.271 481.877 442.626 481.133 440.229 479.645C437.831 478.157 435.93 476.07 434.525 473.383C433.161 470.655 432.479 467.535 432.479 464.021C432.479 460.549 433.161 457.47 434.525 454.783C435.93 452.097 437.811 450.03 440.167 448.583C442.564 447.137 445.23 446.413 448.165 446.413ZM459.511 464.145C459.511 462.037 459.097 460.239 458.271 458.751C457.444 457.222 456.328 456.065 454.923 455.279C453.517 454.453 452.009 454.039 450.397 454.039C448.785 454.039 447.297 454.432 445.933 455.217C444.569 456.003 443.453 457.16 442.585 458.689C441.758 460.177 441.345 461.955 441.345 464.021C441.345 466.088 441.758 467.907 442.585 469.477C443.453 471.007 444.569 472.185 445.933 473.011C447.338 473.838 448.826 474.251 450.397 474.251C452.009 474.251 453.517 473.859 454.923 473.073C456.328 472.247 457.444 471.089 458.271 469.601C459.097 468.072 459.511 466.253 459.511 464.145ZM489.396 459.619C489.396 455.362 490.346 451.559 492.248 448.211C494.19 444.822 496.815 442.197 500.122 440.337C503.47 438.436 507.21 437.485 511.344 437.485C516.18 437.485 520.416 438.725 524.054 441.205C527.691 443.685 530.233 447.116 531.68 451.497H521.698C520.706 449.431 519.3 447.881 517.482 446.847C515.704 445.814 513.638 445.297 511.282 445.297C508.76 445.297 506.508 445.897 504.524 447.095C502.581 448.253 501.052 449.906 499.936 452.055C498.861 454.205 498.324 456.726 498.324 459.619C498.324 462.471 498.861 464.993 499.936 467.183C501.052 469.333 502.581 471.007 504.524 472.205C506.508 473.363 508.76 473.941 511.282 473.941C513.638 473.941 515.704 473.425 517.482 472.391C519.3 471.317 520.706 469.746 521.698 467.679H531.68C530.233 472.102 527.691 475.553 524.054 478.033C520.458 480.472 516.221 481.691 511.344 481.691C507.21 481.691 503.47 480.761 500.122 478.901C496.815 477 494.19 474.375 492.248 471.027C490.346 467.679 489.396 463.877 489.396 459.619ZM547.773 435.439V481.319H539.093V435.439H547.773ZM588.775 446.971V481.319H580.033V476.979C578.917 478.467 577.45 479.645 575.631 480.513C573.854 481.34 571.911 481.753 569.803 481.753C567.117 481.753 564.74 481.195 562.673 480.079C560.607 478.922 558.974 477.248 557.775 475.057C556.618 472.825 556.039 470.18 556.039 467.121V446.971H564.719V465.881C564.719 468.609 565.401 470.717 566.765 472.205C568.129 473.652 569.989 474.375 572.345 474.375C574.743 474.375 576.623 473.652 577.987 472.205C579.351 470.717 580.033 468.609 580.033 465.881V446.971H588.775ZM606.02 451.993C607.136 450.34 608.665 448.997 610.608 447.963C612.592 446.93 614.844 446.413 617.366 446.413C620.3 446.413 622.946 447.137 625.302 448.583C627.699 450.03 629.58 452.097 630.944 454.783C632.349 457.429 633.052 460.508 633.052 464.021C633.052 467.535 632.349 470.655 630.944 473.383C629.58 476.07 627.699 478.157 625.302 479.645C622.946 481.133 620.3 481.877 617.366 481.877C614.803 481.877 612.55 481.381 610.608 480.389C608.706 479.356 607.177 478.033 606.02 476.421V481.319H597.34V435.439H606.02V451.993ZM624.186 464.021C624.186 461.955 623.752 460.177 622.884 458.689C622.057 457.16 620.941 456.003 619.536 455.217C618.172 454.432 616.684 454.039 615.072 454.039C613.501 454.039 612.013 454.453 610.608 455.279C609.244 456.065 608.128 457.222 607.26 458.751C606.433 460.281 606.02 462.079 606.02 464.145C606.02 466.212 606.433 468.01 607.26 469.539C608.128 471.069 609.244 472.247 610.608 473.073C612.013 473.859 613.501 474.251 615.072 474.251C616.684 474.251 618.172 473.838 619.536 473.011C620.941 472.185 622.057 471.007 622.884 469.477C623.752 467.948 624.186 466.129 624.186 464.021Z" fill="#8A8A8A"/>
<path d="M268.04 417.609H264.4L249.76 395.409V417.609H246.12V389.689H249.76L264.4 411.849V389.689H268.04V417.609ZM294.245 405.809C294.245 406.503 294.205 407.236 294.125 408.009H276.605C276.738 410.169 277.472 411.863 278.805 413.089C280.165 414.289 281.805 414.889 283.725 414.889C285.298 414.889 286.605 414.529 287.645 413.809C288.712 413.063 289.458 412.076 289.885 410.849H293.805C293.218 412.956 292.045 414.676 290.285 416.009C288.525 417.316 286.338 417.969 283.725 417.969C281.645 417.969 279.778 417.503 278.125 416.569C276.498 415.636 275.218 414.316 274.285 412.609C273.352 410.876 272.885 408.876 272.885 406.609C272.885 404.343 273.338 402.356 274.245 400.649C275.152 398.943 276.418 397.636 278.045 396.729C279.698 395.796 281.592 395.329 283.725 395.329C285.805 395.329 287.645 395.783 289.245 396.689C290.845 397.596 292.072 398.849 292.925 400.449C293.805 402.023 294.245 403.809 294.245 405.809ZM290.485 405.049C290.485 403.663 290.178 402.476 289.565 401.489C288.952 400.476 288.112 399.716 287.045 399.209C286.005 398.676 284.845 398.409 283.565 398.409C281.725 398.409 280.152 398.996 278.845 400.169C277.565 401.343 276.832 402.969 276.645 405.049H290.485ZM328.25 395.689L321.41 417.609H317.65L312.37 400.209L307.09 417.609H303.33L296.45 395.689H300.17L305.21 414.089L310.65 395.689H314.37L319.69 414.129L324.65 395.689H328.25ZM336.302 398.689V411.609C336.302 412.676 336.529 413.436 336.982 413.889C337.436 414.316 338.222 414.529 339.342 414.529H342.022V417.609H338.742C336.716 417.609 335.196 417.143 334.182 416.209C333.169 415.276 332.662 413.743 332.662 411.609V398.689H329.822V395.689H332.662V390.169H336.302V395.689H342.022V398.689H336.302ZM355.993 417.969C353.939 417.969 352.073 417.503 350.393 416.569C348.739 415.636 347.433 414.316 346.473 412.609C345.539 410.876 345.073 408.876 345.073 406.609C345.073 404.369 345.553 402.396 346.513 400.689C347.499 398.956 348.833 397.636 350.513 396.729C352.193 395.796 354.073 395.329 356.153 395.329C358.233 395.329 360.113 395.796 361.793 396.729C363.473 397.636 364.793 398.943 365.753 400.649C366.739 402.356 367.233 404.343 367.233 406.609C367.233 408.876 366.726 410.876 365.713 412.609C364.726 414.316 363.379 415.636 361.673 416.569C359.966 417.503 358.073 417.969 355.993 417.969ZM355.993 414.769C357.299 414.769 358.526 414.463 359.673 413.849C360.819 413.236 361.739 412.316 362.433 411.089C363.153 409.863 363.513 408.369 363.513 406.609C363.513 404.849 363.166 403.356 362.473 402.129C361.779 400.903 360.873 399.996 359.753 399.409C358.633 398.796 357.419 398.489 356.113 398.489C354.779 398.489 353.553 398.796 352.433 399.409C351.339 399.996 350.459 400.903 349.793 402.129C349.126 403.356 348.793 404.849 348.793 406.609C348.793 408.396 349.113 409.903 349.753 411.129C350.419 412.356 351.299 413.276 352.393 413.889C353.486 414.476 354.686 414.769 355.993 414.769ZM382.698 395.289C385.365 395.289 387.525 396.103 389.178 397.729C390.832 399.329 391.658 401.649 391.658 404.689V417.609H388.058V405.209C388.058 403.023 387.512 401.356 386.418 400.209C385.325 399.036 383.832 398.449 381.938 398.449C380.018 398.449 378.485 399.049 377.338 400.249C376.218 401.449 375.658 403.196 375.658 405.489V417.609H372.018V395.689H375.658V398.809C376.378 397.689 377.352 396.823 378.578 396.209C379.832 395.596 381.205 395.289 382.698 395.289ZM417.108 417.889C415.268 417.889 413.615 417.569 412.148 416.929C410.708 416.263 409.575 415.356 408.748 414.209C407.922 413.036 407.495 411.689 407.468 410.169H411.348C411.482 411.476 412.015 412.583 412.948 413.489C413.908 414.369 415.295 414.809 417.108 414.809C418.842 414.809 420.202 414.383 421.188 413.529C422.202 412.649 422.708 411.529 422.708 410.169C422.708 409.103 422.415 408.236 421.828 407.569C421.242 406.903 420.508 406.396 419.628 406.049C418.748 405.703 417.562 405.329 416.068 404.929C414.228 404.449 412.748 403.969 411.628 403.489C410.535 403.009 409.588 402.263 408.788 401.249C408.015 400.209 407.628 398.823 407.628 397.089C407.628 395.569 408.015 394.223 408.788 393.049C409.562 391.876 410.642 390.969 412.028 390.329C413.442 389.689 415.055 389.369 416.868 389.369C419.482 389.369 421.615 390.023 423.268 391.329C424.948 392.636 425.895 394.369 426.108 396.529H422.108C421.975 395.463 421.415 394.529 420.428 393.729C419.442 392.903 418.135 392.489 416.508 392.489C414.988 392.489 413.748 392.889 412.788 393.689C411.828 394.463 411.348 395.556 411.348 396.969C411.348 397.983 411.628 398.809 412.188 399.449C412.775 400.089 413.482 400.583 414.308 400.929C415.162 401.249 416.348 401.623 417.868 402.049C419.708 402.556 421.188 403.063 422.308 403.569C423.428 404.049 424.388 404.809 425.188 405.849C425.988 406.863 426.388 408.249 426.388 410.009C426.388 411.369 426.028 412.649 425.308 413.849C424.588 415.049 423.522 416.023 422.108 416.769C420.695 417.516 419.028 417.889 417.108 417.889ZM430.385 406.609C430.385 404.343 430.838 402.369 431.745 400.689C432.652 398.983 433.905 397.663 435.505 396.729C437.132 395.796 438.985 395.329 441.065 395.329C443.758 395.329 445.972 395.983 447.705 397.289C449.465 398.596 450.625 400.409 451.185 402.729H447.265C446.892 401.396 446.158 400.343 445.065 399.569C443.998 398.796 442.665 398.409 441.065 398.409C438.985 398.409 437.305 399.129 436.025 400.569C434.745 401.983 434.105 403.996 434.105 406.609C434.105 409.249 434.745 411.289 436.025 412.729C437.305 414.169 438.985 414.889 441.065 414.889C442.665 414.889 443.998 414.516 445.065 413.769C446.132 413.023 446.865 411.956 447.265 410.569H451.185C450.598 412.809 449.425 414.609 447.665 415.969C445.905 417.303 443.705 417.969 441.065 417.969C438.985 417.969 437.132 417.503 435.505 416.569C433.905 415.636 432.652 414.316 431.745 412.609C430.838 410.903 430.385 408.903 430.385 406.609ZM466.922 395.289C468.575 395.289 470.069 395.649 471.402 396.369C472.735 397.063 473.775 398.116 474.522 399.529C475.295 400.943 475.682 402.663 475.682 404.689V417.609H472.082V405.209C472.082 403.023 471.535 401.356 470.442 400.209C469.349 399.036 467.855 398.449 465.962 398.449C464.042 398.449 462.509 399.049 461.362 400.249C460.242 401.449 459.682 403.196 459.682 405.489V417.609H456.042V388.009H459.682V398.809C460.402 397.689 461.389 396.823 462.642 396.209C463.922 395.596 465.349 395.289 466.922 395.289ZM491.188 417.969C489.135 417.969 487.268 417.503 485.588 416.569C483.935 415.636 482.628 414.316 481.668 412.609C480.735 410.876 480.268 408.876 480.268 406.609C480.268 404.369 480.748 402.396 481.708 400.689C482.695 398.956 484.028 397.636 485.708 396.729C487.388 395.796 489.268 395.329 491.348 395.329C493.428 395.329 495.308 395.796 496.988 396.729C498.668 397.636 499.988 398.943 500.948 400.649C501.935 402.356 502.428 404.343 502.428 406.609C502.428 408.876 501.921 410.876 500.908 412.609C499.921 414.316 498.575 415.636 496.868 416.569C495.161 417.503 493.268 417.969 491.188 417.969ZM491.188 414.769C492.495 414.769 493.721 414.463 494.868 413.849C496.015 413.236 496.935 412.316 497.628 411.089C498.348 409.863 498.708 408.369 498.708 406.609C498.708 404.849 498.361 403.356 497.668 402.129C496.975 400.903 496.068 399.996 494.948 399.409C493.828 398.796 492.615 398.489 491.308 398.489C489.975 398.489 488.748 398.796 487.628 399.409C486.535 399.996 485.655 400.903 484.988 402.129C484.321 403.356 483.988 404.849 483.988 406.609C483.988 408.396 484.308 409.903 484.948 411.129C485.615 412.356 486.495 413.276 487.588 413.889C488.681 414.476 489.881 414.769 491.188 414.769ZM516.774 417.969C514.72 417.969 512.854 417.503 511.174 416.569C509.52 415.636 508.214 414.316 507.254 412.609C506.32 410.876 505.854 408.876 505.854 406.609C505.854 404.369 506.334 402.396 507.294 400.689C508.28 398.956 509.614 397.636 511.294 396.729C512.974 395.796 514.854 395.329 516.934 395.329C519.014 395.329 520.894 395.796 522.574 396.729C524.254 397.636 525.574 398.943 526.534 400.649C527.52 402.356 528.014 404.343 528.014 406.609C528.014 408.876 527.507 410.876 526.494 412.609C525.507 414.316 524.16 415.636 522.454 416.569C520.747 417.503 518.854 417.969 516.774 417.969ZM516.774 414.769C518.08 414.769 519.307 414.463 520.454 413.849C521.6 413.236 522.52 412.316 523.214 411.089C523.934 409.863 524.294 408.369 524.294 406.609C524.294 404.849 523.947 403.356 523.254 402.129C522.56 400.903 521.654 399.996 520.534 399.409C519.414 398.796 518.2 398.489 516.894 398.489C515.56 398.489 514.334 398.796 513.214 399.409C512.12 399.996 511.24 400.903 510.574 402.129C509.907 403.356 509.574 404.849 509.574 406.609C509.574 408.396 509.894 409.903 510.534 411.129C511.2 412.356 512.08 413.276 513.174 413.889C514.267 414.476 515.467 414.769 516.774 414.769ZM536.44 388.009V417.609H532.8V388.009H536.44Z" fill="#8A8A8A"/>
<defs>
<linearGradient id="paint0_linear_58_58" x1="277.891" y1="446.816" x2="794.086" y2="743.761" gradientUnits="userSpaceOnUse">
<stop stop-color="#7E9ACF"/>
<stop offset="0.541668" stop-color="#78C7CE"/>
<stop offset="1" stop-color="#69CDD5" stop-opacity="0.58"/>
</linearGradient>
</defs>
</svg>
