<svg width="914" height="374" viewBox="0 0 914 374" fill="none" xmlns="http://www.w3.org/2000/svg">
<path d="M97.2741 128.255V245.734C87.3744 239.459 79.2211 230.785 73.5717 220.515C67.9223 210.246 64.96 198.715 64.96 186.995C64.96 175.274 67.9223 163.743 73.5717 153.474C79.2211 143.204 87.3744 134.53 97.2741 128.255Z" fill="#7E9ACF"/>
<path d="M166.063 248.982C156.295 253.962 145.482 256.551 134.517 256.534H132.834V186.115L166.063 248.982Z" fill="#7E9ACF"/>
<path d="M168.48 117.466V185.716L132.834 118.265L132.435 117.466H132.834H134.517H168.48Z" fill="#7E9ACF"/>
<path d="M204.04 117.466V187C204.06 194.92 202.717 202.785 200.07 210.25C194.441 226.165 183.212 239.488 168.48 247.73V117.466H204.04Z" fill="#78C7CE"/>
<path d="M132.834 186.116V256.513C120.204 256.234 107.891 252.503 97.2307 245.724V128.256C98.4714 127.457 99.7445 126.713 101.039 126.001L132.834 186.116Z" fill="#78C7CE"/>
<path d="M168.48 185.716V247.676C167.681 248.129 166.872 248.561 166.063 248.982L132.833 186.115L101.082 126.022C110.703 120.716 121.452 117.783 132.434 117.466L132.833 118.232L168.48 185.716Z" fill="#84CEBF"/>
<path d="M245.504 261.891V239.491H253.952C256.117 239.491 257.723 239.955 258.768 240.883C259.824 241.8 260.352 243.139 260.352 244.899C260.352 246.211 260.053 247.309 259.456 248.195C258.869 249.069 257.984 249.709 256.8 250.115V249.347C258.592 249.731 259.931 250.435 260.816 251.459C261.701 252.483 262.144 253.837 262.144 255.523C262.144 257.539 261.493 259.107 260.192 260.227C258.891 261.336 257.109 261.891 254.848 261.891H245.504ZM249.6 258.243H254.24C255.36 258.243 256.251 258.013 256.912 257.555C257.584 257.096 257.92 256.269 257.92 255.075C257.92 253.859 257.568 253.032 256.864 252.595C256.16 252.157 255.285 251.939 254.24 251.939H249.6V258.243ZM249.6 248.291H253.344C254.336 248.291 255.077 248.088 255.568 247.683C256.069 247.277 256.32 246.627 256.32 245.731C256.32 244.803 256.069 244.141 255.568 243.747C255.077 243.341 254.336 243.139 253.344 243.139H249.6V248.291ZM270.943 262.211C270.09 262.211 269.311 262.024 268.607 261.651C267.903 261.267 267.343 260.717 266.927 260.003C266.511 259.288 266.303 258.424 266.303 257.411C266.303 256.504 266.511 255.731 266.927 255.091C267.354 254.44 267.909 253.901 268.591 253.475C269.285 253.037 270.031 252.696 270.831 252.451C271.642 252.195 272.437 252.008 273.215 251.891C274.005 251.773 274.698 251.704 275.295 251.683C275.253 250.765 275.018 250.099 274.591 249.683C274.165 249.267 273.439 249.059 272.415 249.059C271.701 249.059 271.002 249.16 270.319 249.363C269.647 249.555 268.885 249.859 268.031 250.275L267.679 247.043C268.639 246.573 269.599 246.221 270.559 245.987C271.53 245.752 272.511 245.635 273.503 245.635C274.698 245.635 275.727 245.848 276.591 246.275C277.455 246.701 278.122 247.389 278.591 248.339C279.061 249.277 279.295 250.52 279.295 252.067V256.387C279.295 257.187 279.333 257.768 279.407 258.131C279.482 258.483 279.621 258.707 279.823 258.803C280.026 258.899 280.319 258.947 280.703 258.947H281.215L280.863 262.211H279.423C278.826 262.211 278.293 262.131 277.823 261.971C277.365 261.821 276.97 261.608 276.639 261.331C276.309 261.053 276.042 260.728 275.839 260.355C275.317 260.941 274.607 261.4 273.711 261.731C272.826 262.051 271.903 262.211 270.943 262.211ZM272.607 259.171C272.959 259.171 273.397 259.08 273.919 258.899C274.442 258.707 274.911 258.413 275.327 258.019V254.371C274.581 254.403 273.834 254.525 273.087 254.739C272.341 254.952 271.717 255.267 271.215 255.683C270.714 256.099 270.463 256.621 270.463 257.251C270.463 257.901 270.634 258.387 270.975 258.707C271.317 259.016 271.861 259.171 272.607 259.171ZM284.417 269.635L284.065 266.371C284.566 266.371 284.955 266.291 285.233 266.131C285.51 265.981 285.702 265.72 285.809 265.347C285.926 264.973 285.985 264.461 285.985 263.811V245.891H289.953V265.443C289.953 266.563 289.787 267.421 289.457 268.019C289.126 268.627 288.641 269.048 288.001 269.283C287.361 269.517 286.582 269.635 285.665 269.635H284.417ZM285.985 243.459V239.491H289.953V243.459H285.985ZM299.688 262.211C298.835 262.211 298.056 262.024 297.352 261.651C296.648 261.267 296.088 260.717 295.672 260.003C295.256 259.288 295.048 258.424 295.048 257.411C295.048 256.504 295.256 255.731 295.672 255.091C296.099 254.44 296.654 253.901 297.336 253.475C298.03 253.037 298.776 252.696 299.576 252.451C300.387 252.195 301.182 252.008 301.96 251.891C302.75 251.773 303.443 251.704 304.04 251.683C303.998 250.765 303.763 250.099 303.336 249.683C302.91 249.267 302.184 249.059 301.16 249.059C300.446 249.059 299.747 249.16 299.064 249.363C298.392 249.555 297.63 249.859 296.776 250.275L296.424 247.043C297.384 246.573 298.344 246.221 299.304 245.987C300.275 245.752 301.256 245.635 302.248 245.635C303.443 245.635 304.472 245.848 305.336 246.275C306.2 246.701 306.867 247.389 307.336 248.339C307.806 249.277 308.04 250.52 308.04 252.067V256.387C308.04 257.187 308.078 257.768 308.152 258.131C308.227 258.483 308.366 258.707 308.568 258.803C308.771 258.899 309.064 258.947 309.448 258.947H309.96L309.608 262.211H308.168C307.571 262.211 307.038 262.131 306.568 261.971C306.11 261.821 305.715 261.608 305.384 261.331C305.054 261.053 304.787 260.728 304.584 260.355C304.062 260.941 303.352 261.4 302.456 261.731C301.571 262.051 300.648 262.211 299.688 262.211ZM301.352 259.171C301.704 259.171 302.142 259.08 302.664 258.899C303.187 258.707 303.656 258.413 304.072 258.019V254.371C303.326 254.403 302.579 254.525 301.832 254.739C301.086 254.952 300.462 255.267 299.96 255.683C299.459 256.099 299.208 256.621 299.208 257.251C299.208 257.901 299.379 258.387 299.72 258.707C300.062 259.016 300.606 259.171 301.352 259.171ZM313.162 269.635L312.81 266.371C313.311 266.371 313.7 266.291 313.978 266.131C314.255 265.981 314.447 265.72 314.554 265.347C314.671 264.973 314.73 264.461 314.73 263.811V245.891H318.698V265.443C318.698 266.563 318.532 267.421 318.202 268.019C317.871 268.627 317.386 269.048 316.746 269.283C316.106 269.517 315.327 269.635 314.41 269.635H313.162ZM314.73 243.459V239.491H318.698V243.459H314.73ZM335.333 261.891V239.491H339.429V261.891H335.333ZM346.035 261.891V245.891H349.747L349.907 248.867L348.979 247.651C349.587 247.139 350.312 246.675 351.155 246.259C351.997 245.843 352.979 245.635 354.099 245.635C356.147 245.635 357.667 246.317 358.659 247.683C359.651 249.037 360.147 250.797 360.147 252.963V261.891H356.179V253.283C356.179 251.789 355.928 250.685 355.427 249.971C354.936 249.256 354.131 248.899 353.011 248.899C352.104 248.899 351.363 249.123 350.787 249.571C350.211 250.008 349.704 250.595 349.267 251.331L350.003 249.379V261.891H346.035ZM370.795 262.211C369.739 262.211 368.784 262.109 367.931 261.907C367.088 261.704 366.24 261.411 365.387 261.027L365.739 257.635C366.56 258.115 367.366 258.504 368.155 258.803C368.955 259.091 369.792 259.235 370.667 259.235C371.456 259.235 372.059 259.107 372.475 258.851C372.891 258.595 373.099 258.189 373.099 257.635C373.099 257.219 372.987 256.877 372.763 256.611C372.55 256.344 372.224 256.104 371.787 255.891C371.35 255.677 370.806 255.448 370.155 255.203C369.174 254.84 368.336 254.445 367.643 254.019C366.96 253.592 366.438 253.08 366.075 252.483C365.723 251.875 365.547 251.128 365.547 250.243C365.547 249.325 365.787 248.515 366.267 247.811C366.747 247.107 367.43 246.557 368.315 246.163C369.2 245.768 370.251 245.571 371.467 245.571C372.48 245.571 373.387 245.683 374.187 245.907C374.998 246.131 375.744 246.435 376.427 246.819L376.075 250.211C375.36 249.709 374.64 249.299 373.915 248.979C373.19 248.648 372.395 248.483 371.531 248.483C370.848 248.483 370.32 248.621 369.947 248.899C369.574 249.176 369.387 249.571 369.387 250.083C369.387 250.701 369.648 251.165 370.171 251.475C370.694 251.784 371.531 252.163 372.683 252.611C373.43 252.899 374.075 253.197 374.619 253.507C375.174 253.816 375.632 254.157 375.995 254.531C376.358 254.904 376.624 255.331 376.795 255.811C376.976 256.28 377.067 256.824 377.067 257.443C377.067 258.456 376.822 259.32 376.331 260.035C375.851 260.739 375.142 261.277 374.203 261.651C373.275 262.024 372.139 262.211 370.795 262.211ZM387.558 262.211C386.556 262.211 385.74 262.008 385.11 261.603C384.481 261.187 384.017 260.659 383.718 260.019C383.42 259.379 383.27 258.712 383.27 258.019V249.155H380.998L381.35 245.891H383.27V242.371L387.238 241.955V245.891H390.758V249.155H387.238V256.387C387.238 257.197 387.286 257.784 387.382 258.147C387.478 258.499 387.697 258.723 388.038 258.819C388.38 258.904 388.924 258.947 389.67 258.947H390.758L390.406 262.211H387.558ZM395.902 261.891V245.891H399.87V261.891H395.902ZM395.902 243.459V239.491H399.87V243.459H395.902ZM411.366 262.211C410.363 262.211 409.547 262.008 408.918 261.603C408.288 261.187 407.824 260.659 407.526 260.019C407.227 259.379 407.078 258.712 407.078 258.019V249.155H404.806L405.158 245.891H407.078V242.371L411.046 241.955V245.891H414.566V249.155H411.046V256.387C411.046 257.197 411.094 257.784 411.19 258.147C411.286 258.499 411.504 258.723 411.846 258.819C412.187 258.904 412.731 258.947 413.478 258.947H414.566L414.214 262.211H411.366ZM426.334 262.211C424.67 262.211 423.342 261.88 422.35 261.219C421.358 260.557 420.643 259.651 420.206 258.499C419.768 257.336 419.55 256.003 419.55 254.499V245.891H423.518V254.499C423.518 255.981 423.763 257.085 424.254 257.811C424.755 258.525 425.566 258.883 426.686 258.883C427.582 258.883 428.323 258.669 428.91 258.243C429.507 257.816 430.003 257.219 430.398 256.451L429.694 258.467V245.891H433.662V261.891H429.95L429.758 259.107L430.622 260.227C430.238 260.717 429.63 261.171 428.798 261.587C427.976 262.003 427.155 262.211 426.334 262.211ZM445.142 262.211C444.139 262.211 443.323 262.008 442.694 261.603C442.065 261.187 441.601 260.659 441.302 260.019C441.003 259.379 440.854 258.712 440.854 258.019V249.155H438.582L438.934 245.891H440.854V242.371L444.822 241.955V245.891H448.342V249.155H444.822V256.387C444.822 257.197 444.87 257.784 444.966 258.147C445.062 258.499 445.281 258.723 445.622 258.819C445.963 258.904 446.507 258.947 447.254 258.947H448.342L447.99 262.211H445.142ZM461.198 262.211C459.267 262.211 457.657 261.827 456.366 261.059C455.086 260.28 454.126 259.256 453.486 257.987C452.846 256.707 452.526 255.309 452.526 253.795C452.526 252.333 452.825 250.984 453.422 249.747C454.03 248.509 454.915 247.517 456.078 246.771C457.241 246.013 458.659 245.635 460.334 245.635C461.87 245.635 463.15 245.949 464.174 246.579C465.198 247.208 465.966 248.051 466.478 249.107C466.99 250.152 467.246 251.309 467.246 252.579C467.246 252.931 467.225 253.288 467.182 253.651C467.139 254.003 467.075 254.371 466.99 254.755H456.654C456.803 255.747 457.113 256.552 457.582 257.171C458.062 257.779 458.643 258.227 459.326 258.515C460.019 258.803 460.761 258.947 461.55 258.947C462.478 258.947 463.342 258.829 464.142 258.595C464.942 258.349 465.678 258.029 466.35 257.635L466.542 260.995C465.934 261.315 465.177 261.597 464.27 261.843C463.363 262.088 462.339 262.211 461.198 262.211ZM456.75 252.067H463.214C463.214 251.587 463.123 251.107 462.942 250.627C462.761 250.136 462.457 249.725 462.03 249.395C461.614 249.064 461.049 248.899 460.334 248.899C459.31 248.899 458.505 249.197 457.918 249.795C457.331 250.392 456.942 251.149 456.75 252.067ZM489.526 262.211C487.788 262.211 486.305 261.832 485.078 261.075C483.852 260.317 482.913 259.309 482.262 258.051C481.622 256.792 481.302 255.416 481.302 253.923C481.302 252.419 481.622 251.032 482.262 249.763C482.913 248.493 483.852 247.48 485.078 246.723C486.305 245.955 487.788 245.571 489.526 245.571C491.265 245.571 492.748 245.955 493.974 246.723C495.201 247.48 496.134 248.493 496.774 249.763C497.425 251.032 497.75 252.419 497.75 253.923C497.75 255.416 497.425 256.792 496.774 258.051C496.134 259.309 495.201 260.317 493.974 261.075C492.748 261.832 491.265 262.211 489.526 262.211ZM489.526 258.947C490.86 258.947 491.884 258.483 492.598 257.555C493.324 256.616 493.686 255.405 493.686 253.923C493.686 252.419 493.324 251.197 492.598 250.259C491.884 249.309 490.86 248.835 489.526 248.835C488.204 248.835 487.18 249.309 486.454 250.259C485.729 251.197 485.366 252.419 485.366 253.923C485.366 255.405 485.729 256.616 486.454 257.555C487.18 258.483 488.204 258.947 489.526 258.947ZM503.845 261.891V249.155H501.573L501.925 245.891H503.845V242.499C503.845 241.091 504.261 239.971 505.093 239.139C505.935 238.307 507.141 237.891 508.709 237.891C509.221 237.891 509.69 237.917 510.117 237.971C510.554 238.024 510.949 238.093 511.301 238.179L510.949 241.379C510.789 241.325 510.613 241.288 510.421 241.267C510.229 241.235 509.989 241.219 509.701 241.219C509.125 241.219 508.666 241.373 508.325 241.683C507.983 241.992 507.813 242.499 507.813 243.203V245.891H511.333V249.155H507.813V261.891H503.845ZM531.027 261.891V243.459H524.691V239.491H541.459V243.459H535.123V261.891H531.027ZM551.714 262.211C549.784 262.211 548.173 261.827 546.882 261.059C545.602 260.28 544.642 259.256 544.002 257.987C543.362 256.707 543.042 255.309 543.042 253.795C543.042 252.333 543.341 250.984 543.938 249.747C544.546 248.509 545.432 247.517 546.594 246.771C547.757 246.013 549.176 245.635 550.85 245.635C552.386 245.635 553.666 245.949 554.69 246.579C555.714 247.208 556.482 248.051 556.994 249.107C557.506 250.152 557.762 251.309 557.762 252.579C557.762 252.931 557.741 253.288 557.698 253.651C557.656 254.003 557.592 254.371 557.506 254.755H547.17C547.32 255.747 547.629 256.552 548.098 257.171C548.578 257.779 549.16 258.227 549.842 258.515C550.536 258.803 551.277 258.947 552.066 258.947C552.994 258.947 553.858 258.829 554.658 258.595C555.458 258.349 556.194 258.029 556.866 257.635L557.058 260.995C556.45 261.315 555.693 261.597 554.786 261.843C553.88 262.088 552.856 262.211 551.714 262.211ZM547.266 252.067H553.73C553.73 251.587 553.64 251.107 553.458 250.627C553.277 250.136 552.973 249.725 552.546 249.395C552.13 249.064 551.565 248.899 550.85 248.899C549.826 248.899 549.021 249.197 548.434 249.795C547.848 250.392 547.458 251.149 547.266 252.067ZM570.455 262.211C568.62 262.211 567.079 261.837 565.831 261.091C564.594 260.333 563.655 259.331 563.015 258.083C562.386 256.824 562.071 255.437 562.071 253.923C562.071 252.397 562.386 251.005 563.015 249.747C563.644 248.477 564.588 247.464 565.847 246.707C567.106 245.949 568.684 245.571 570.583 245.571C571.479 245.571 572.29 245.672 573.015 245.875C573.74 246.067 574.359 246.307 574.871 246.595L574.551 249.795C574.06 249.539 573.506 249.325 572.887 249.155C572.279 248.984 571.639 248.899 570.967 248.899C569.431 248.899 568.242 249.363 567.399 250.291C566.556 251.219 566.135 252.429 566.135 253.923C566.135 255.341 566.567 256.536 567.431 257.507C568.295 258.467 569.463 258.947 570.935 258.947C571.564 258.947 572.183 258.856 572.791 258.675C573.41 258.483 574.007 258.221 574.583 257.891L574.935 261.251C574.38 261.539 573.708 261.768 572.919 261.939C572.14 262.12 571.319 262.211 570.455 262.211ZM580.122 261.891V237.891H584.09V248.227L583.194 247.523C583.866 247.053 584.596 246.621 585.386 246.227C586.175 245.832 587.119 245.635 588.218 245.635C589.626 245.635 590.772 245.949 591.658 246.579C592.543 247.197 593.194 248.061 593.61 249.171C594.026 250.269 594.234 251.544 594.234 252.995V261.891H590.266V253.283C590.266 251.789 590.026 250.685 589.546 249.971C589.066 249.256 588.282 248.899 587.194 248.899C586.266 248.899 585.503 249.117 584.906 249.555C584.319 249.981 583.802 250.563 583.354 251.299L584.09 249.155V261.891H580.122ZM600.339 261.891V245.891H604.051L604.211 248.867L603.283 247.651C603.891 247.139 604.616 246.675 605.459 246.259C606.301 245.843 607.283 245.635 608.403 245.635C610.451 245.635 611.971 246.317 612.963 247.683C613.955 249.037 614.451 250.797 614.451 252.963V261.891H610.483V253.283C610.483 251.789 610.232 250.685 609.731 249.971C609.24 249.256 608.435 248.899 607.315 248.899C606.408 248.899 605.667 249.123 605.091 249.571C604.515 250.008 604.008 250.595 603.571 251.331L604.307 249.379V261.891H600.339ZM627.819 262.211C626.08 262.211 624.597 261.832 623.371 261.075C622.144 260.317 621.205 259.309 620.555 258.051C619.915 256.792 619.595 255.416 619.595 253.923C619.595 252.419 619.915 251.032 620.555 249.763C621.205 248.493 622.144 247.48 623.371 246.723C624.597 245.955 626.08 245.571 627.819 245.571C629.557 245.571 631.04 245.955 632.267 246.723C633.493 247.48 634.427 248.493 635.067 249.763C635.717 251.032 636.043 252.419 636.043 253.923C636.043 255.416 635.717 256.792 635.067 258.051C634.427 259.309 633.493 260.317 632.267 261.075C631.04 261.832 629.557 262.211 627.819 262.211ZM627.819 258.947C629.152 258.947 630.176 258.483 630.891 257.555C631.616 256.616 631.979 255.405 631.979 253.923C631.979 252.419 631.616 251.197 630.891 250.259C630.176 249.309 629.152 248.835 627.819 248.835C626.496 248.835 625.472 249.309 624.747 250.259C624.021 251.197 623.659 252.419 623.659 253.923C623.659 255.405 624.021 256.616 624.747 257.555C625.472 258.483 626.496 258.947 627.819 258.947ZM645.461 262.211C644.511 262.211 643.733 262.024 643.125 261.651C642.527 261.267 642.085 260.76 641.797 260.131C641.509 259.491 641.365 258.787 641.365 258.019V237.891H645.333V256.387C645.333 257.24 645.381 257.848 645.477 258.211C645.583 258.563 645.775 258.776 646.053 258.851C646.33 258.915 646.73 258.947 647.253 258.947L646.901 262.211H645.461ZM659.439 262.211C657.7 262.211 656.217 261.832 654.991 261.075C653.764 260.317 652.825 259.309 652.175 258.051C651.535 256.792 651.215 255.416 651.215 253.923C651.215 252.419 651.535 251.032 652.175 249.763C652.825 248.493 653.764 247.48 654.991 246.723C656.217 245.955 657.7 245.571 659.439 245.571C661.177 245.571 662.66 245.955 663.887 246.723C665.113 247.48 666.047 248.493 666.687 249.763C667.337 251.032 667.663 252.419 667.663 253.923C667.663 255.416 667.337 256.792 666.687 258.051C666.047 259.309 665.113 260.317 663.887 261.075C662.66 261.832 661.177 262.211 659.439 262.211ZM659.439 258.947C660.772 258.947 661.796 258.483 662.511 257.555C663.236 256.616 663.599 255.405 663.599 253.923C663.599 252.419 663.236 251.197 662.511 250.259C661.796 249.309 660.772 248.835 659.439 248.835C658.116 248.835 657.092 249.309 656.367 250.259C655.641 251.197 655.279 252.419 655.279 253.923C655.279 255.405 655.641 256.616 656.367 257.555C657.092 258.483 658.116 258.947 659.439 258.947ZM679.321 269.955C677.827 269.955 676.521 269.768 675.401 269.395C674.291 269.032 673.427 268.509 672.809 267.827C672.201 267.144 671.897 266.328 671.897 265.379C671.897 264.579 672.115 263.864 672.553 263.235C673.001 262.616 673.646 262.072 674.489 261.603C674.062 261.347 673.721 261.027 673.465 260.643C673.209 260.259 673.081 259.821 673.081 259.331C673.081 258.819 673.225 258.376 673.513 258.003C673.811 257.619 674.201 257.315 674.681 257.091C673.87 256.515 673.257 255.779 672.841 254.883C672.425 253.976 672.217 252.995 672.217 251.939C672.217 250.787 672.467 249.731 672.969 248.771C673.47 247.8 674.201 247.027 675.161 246.451C676.131 245.864 677.315 245.571 678.713 245.571C679.438 245.571 680.105 245.661 680.713 245.843C681.331 246.024 681.881 246.275 682.361 246.595C682.681 246.413 683.145 246.253 683.753 246.115C684.361 245.965 685.038 245.891 685.785 245.891C685.966 245.891 686.137 245.891 686.297 245.891C686.467 245.891 686.638 245.891 686.809 245.891L686.553 248.387C686.318 248.387 686.078 248.387 685.833 248.387C685.598 248.387 685.358 248.387 685.113 248.387C685.017 248.387 684.889 248.387 684.729 248.387C684.569 248.387 684.398 248.397 684.217 248.419C684.537 248.909 684.777 249.459 684.937 250.067C685.097 250.675 685.177 251.299 685.177 251.939C685.177 253.091 684.926 254.152 684.425 255.123C683.934 256.083 683.209 256.856 682.249 257.443C681.289 258.019 680.11 258.307 678.713 258.307C678.414 258.307 678.126 258.285 677.849 258.243C677.571 258.2 677.294 258.147 677.017 258.083C676.782 258.179 676.665 258.349 676.665 258.595C676.665 258.883 676.841 259.101 677.193 259.251C677.545 259.4 678.094 259.533 678.841 259.651L681.593 260.003C683.31 260.227 684.654 260.712 685.625 261.459C686.606 262.205 687.097 263.267 687.097 264.643C687.097 265.709 686.787 266.637 686.169 267.427C685.561 268.227 684.675 268.845 683.513 269.283C682.35 269.731 680.953 269.955 679.321 269.955ZM679.481 266.947C680.825 266.947 681.843 266.781 682.537 266.451C683.23 266.12 683.577 265.613 683.577 264.931C683.577 264.323 683.331 263.875 682.841 263.587C682.361 263.299 681.593 263.075 680.537 262.915L677.033 262.403C676.51 262.605 676.073 262.883 675.721 263.235C675.369 263.597 675.193 264.067 675.193 264.643C675.193 265.421 675.571 265.997 676.329 266.371C677.086 266.755 678.137 266.947 679.481 266.947ZM678.713 255.363C679.662 255.363 680.377 255.053 680.857 254.435C681.347 253.805 681.593 252.973 681.593 251.939C681.593 250.893 681.347 250.061 680.857 249.443C680.377 248.824 679.662 248.515 678.713 248.515C677.753 248.515 677.027 248.824 676.537 249.443C676.046 250.061 675.801 250.893 675.801 251.939C675.801 252.973 676.046 253.805 676.537 254.435C677.027 255.053 677.753 255.363 678.713 255.363ZM692.856 269.635L696.408 260.835L689.752 245.891H694.168L698.264 256.195L702.424 245.891H706.84L696.824 269.635H692.856ZM712.37 265.731H710.514L711.89 261.891H710.258V257.539H714.418V261.507L712.37 265.731ZM734.899 261.891L728.595 239.491H732.851L737.331 255.395L742.323 239.491H745.171L750.355 254.979L754.643 239.491H758.899L752.339 261.891H748.723L743.731 246.947L738.771 261.891H734.899ZM765.803 262.211C764.95 262.211 764.171 262.024 763.467 261.651C762.763 261.267 762.203 260.717 761.787 260.003C761.371 259.288 761.163 258.424 761.163 257.411C761.163 256.504 761.371 255.731 761.787 255.091C762.214 254.44 762.769 253.901 763.451 253.475C764.145 253.037 764.891 252.696 765.691 252.451C766.502 252.195 767.297 252.008 768.075 251.891C768.865 251.773 769.558 251.704 770.155 251.683C770.113 250.765 769.878 250.099 769.451 249.683C769.025 249.267 768.299 249.059 767.275 249.059C766.561 249.059 765.862 249.16 765.179 249.363C764.507 249.555 763.745 249.859 762.891 250.275L762.539 247.043C763.499 246.573 764.459 246.221 765.419 245.987C766.39 245.752 767.371 245.635 768.363 245.635C769.558 245.635 770.587 245.848 771.451 246.275C772.315 246.701 772.982 247.389 773.451 248.339C773.921 249.277 774.155 250.52 774.155 252.067V256.387C774.155 257.187 774.193 257.768 774.267 258.131C774.342 258.483 774.481 258.707 774.683 258.803C774.886 258.899 775.179 258.947 775.563 258.947H776.075L775.723 262.211H774.283C773.686 262.211 773.153 262.131 772.683 261.971C772.225 261.821 771.83 261.608 771.499 261.331C771.169 261.053 770.902 260.728 770.699 260.355C770.177 260.941 769.467 261.4 768.571 261.731C767.686 262.051 766.763 262.211 765.803 262.211ZM767.467 259.171C767.819 259.171 768.257 259.08 768.779 258.899C769.302 258.707 769.771 258.413 770.187 258.019V254.371C769.441 254.403 768.694 254.525 767.947 254.739C767.201 254.952 766.577 255.267 766.075 255.683C765.574 256.099 765.323 256.621 765.323 257.251C765.323 257.901 765.494 258.387 765.835 258.707C766.177 259.016 766.721 259.171 767.467 259.171ZM780.845 261.891V245.891H784.557L784.653 247.587C785.058 247.139 785.629 246.691 786.365 246.243C787.101 245.795 787.906 245.571 788.781 245.571C789.037 245.571 789.271 245.592 789.485 245.635L789.197 249.539C788.962 249.475 788.727 249.432 788.493 249.411C788.269 249.389 788.045 249.379 787.821 249.379C787.149 249.379 786.535 249.533 785.981 249.843C785.426 250.152 785.037 250.531 784.813 250.979V261.891H780.845ZM800.15 262.211C798.529 262.211 797.163 261.832 796.054 261.075C794.955 260.317 794.123 259.309 793.558 258.051C793.003 256.792 792.726 255.416 792.726 253.923C792.726 252.429 793.003 251.053 793.558 249.795C794.123 248.536 794.955 247.528 796.054 246.771C797.163 246.013 798.529 245.635 800.15 245.635C801.323 245.635 802.315 245.832 803.126 246.227C803.937 246.611 804.651 247.107 805.27 247.715L804.31 248.547V237.891H808.278V261.891H804.534L804.342 259.171L805.494 260.003C804.747 260.685 803.974 261.224 803.174 261.619C802.374 262.013 801.366 262.211 800.15 262.211ZM800.726 258.947C801.601 258.947 802.315 258.733 802.87 258.307C803.425 257.88 803.835 257.293 804.102 256.547C804.369 255.789 804.502 254.915 804.502 253.923C804.502 252.931 804.369 252.061 804.102 251.315C803.835 250.557 803.425 249.965 802.87 249.539C802.315 249.112 801.601 248.899 800.726 248.899C799.894 248.899 799.185 249.112 798.598 249.539C798.011 249.965 797.563 250.557 797.254 251.315C796.945 252.061 796.79 252.931 796.79 253.923C796.79 254.915 796.945 255.789 797.254 256.547C797.563 257.293 798.011 257.88 798.598 258.307C799.185 258.733 799.894 258.947 800.726 258.947ZM814.495 261.891V237.891H818.463V248.227L817.567 247.523C818.239 247.053 818.97 246.621 819.759 246.227C820.549 245.832 821.493 245.635 822.591 245.635C823.999 245.635 825.146 245.949 826.031 246.579C826.917 247.197 827.567 248.061 827.983 249.171C828.399 250.269 828.607 251.544 828.607 252.995V261.891H824.639V253.283C824.639 251.789 824.399 250.685 823.919 249.971C823.439 249.256 822.655 248.899 821.567 248.899C820.639 248.899 819.877 249.117 819.279 249.555C818.693 249.981 818.175 250.563 817.727 251.299L818.463 249.155V261.891H814.495ZM838.168 262.211C837.315 262.211 836.536 262.024 835.832 261.651C835.128 261.267 834.568 260.717 834.152 260.003C833.736 259.288 833.528 258.424 833.528 257.411C833.528 256.504 833.736 255.731 834.152 255.091C834.579 254.44 835.134 253.901 835.816 253.475C836.51 253.037 837.256 252.696 838.056 252.451C838.867 252.195 839.662 252.008 840.44 251.891C841.23 251.773 841.923 251.704 842.52 251.683C842.478 250.765 842.243 250.099 841.816 249.683C841.39 249.267 840.664 249.059 839.64 249.059C838.926 249.059 838.227 249.16 837.544 249.363C836.872 249.555 836.11 249.859 835.256 250.275L834.904 247.043C835.864 246.573 836.824 246.221 837.784 245.987C838.755 245.752 839.736 245.635 840.728 245.635C841.923 245.635 842.952 245.848 843.816 246.275C844.68 246.701 845.347 247.389 845.816 248.339C846.286 249.277 846.52 250.52 846.52 252.067V256.387C846.52 257.187 846.558 257.768 846.632 258.131C846.707 258.483 846.846 258.707 847.048 258.803C847.251 258.899 847.544 258.947 847.928 258.947H848.44L848.088 262.211H846.648C846.051 262.211 845.518 262.131 845.048 261.971C844.59 261.821 844.195 261.608 843.864 261.331C843.534 261.053 843.267 260.728 843.064 260.355C842.542 260.941 841.832 261.4 840.936 261.731C840.051 262.051 839.128 262.211 838.168 262.211ZM839.832 259.171C840.184 259.171 840.622 259.08 841.144 258.899C841.667 258.707 842.136 258.413 842.552 258.019V254.371C841.806 254.403 841.059 254.525 840.312 254.739C839.566 254.952 838.942 255.267 838.44 255.683C837.939 256.099 837.688 256.621 837.688 257.251C837.688 257.901 837.859 258.387 838.2 258.707C838.542 259.016 839.086 259.171 839.832 259.171Z" fill="url(#paint0_linear_58_58)"/>
<path d="M245.21 190.119C245.21 185.862 246.161 182.059 248.062 178.711C250.005 175.322 252.629 172.697 255.936 170.837C259.284 168.936 263.025 167.985 267.158 167.985C271.994 167.985 276.231 169.225 279.868 171.705C283.505 174.185 286.047 177.616 287.494 181.997H277.512C276.52 179.931 275.115 178.381 273.296 177.347C271.519 176.314 269.452 175.797 267.096 175.797C264.575 175.797 262.322 176.397 260.338 177.595C258.395 178.753 256.866 180.406 255.75 182.555C254.675 184.705 254.138 187.226 254.138 190.119C254.138 192.971 254.675 195.493 255.75 197.683C256.866 199.833 258.395 201.507 260.338 202.705C262.322 203.863 264.575 204.441 267.096 204.441C269.452 204.441 271.519 203.925 273.296 202.891C275.115 201.817 276.52 200.246 277.512 198.179H287.494C286.047 202.602 283.505 206.053 279.868 208.533C276.272 210.972 272.035 212.191 267.158 212.191C263.025 212.191 259.284 211.261 255.936 209.401C252.629 207.5 250.005 204.875 248.062 201.527C246.161 198.179 245.21 194.377 245.21 190.119ZM310.16 212.377C306.853 212.377 303.877 211.654 301.232 210.207C298.587 208.719 296.499 206.632 294.97 203.945C293.482 201.259 292.738 198.159 292.738 194.645C292.738 191.132 293.503 188.032 295.032 185.345C296.603 182.659 298.731 180.592 301.418 179.145C304.105 177.657 307.101 176.913 310.408 176.913C313.715 176.913 316.711 177.657 319.398 179.145C322.085 180.592 324.193 182.659 325.722 185.345C327.293 188.032 328.078 191.132 328.078 194.645C328.078 198.159 327.272 201.259 325.66 203.945C324.089 206.632 321.94 208.719 319.212 210.207C316.525 211.654 313.508 212.377 310.16 212.377ZM310.16 204.813C311.731 204.813 313.198 204.441 314.562 203.697C315.967 202.912 317.083 201.755 317.91 200.225C318.737 198.696 319.15 196.836 319.15 194.645C319.15 191.38 318.282 188.879 316.546 187.143C314.851 185.366 312.764 184.477 310.284 184.477C307.804 184.477 305.717 185.366 304.022 187.143C302.369 188.879 301.542 191.38 301.542 194.645C301.542 197.911 302.348 200.432 303.96 202.209C305.613 203.945 307.68 204.813 310.16 204.813ZM332.213 194.521C332.213 191.049 332.895 187.97 334.259 185.283C335.664 182.597 337.566 180.53 339.963 179.083C342.36 177.637 345.026 176.913 347.961 176.913C350.193 176.913 352.322 177.409 354.347 178.401C356.372 179.352 357.984 180.633 359.183 182.245V165.939H367.987V211.819H359.183V206.735C358.108 208.43 356.6 209.794 354.657 210.827C352.714 211.861 350.462 212.377 347.899 212.377C345.006 212.377 342.36 211.633 339.963 210.145C337.566 208.657 335.664 206.57 334.259 203.883C332.895 201.155 332.213 198.035 332.213 194.521ZM359.245 194.645C359.245 192.537 358.832 190.739 358.005 189.251C357.178 187.722 356.062 186.565 354.657 185.779C353.252 184.953 351.743 184.539 350.131 184.539C348.519 184.539 347.031 184.932 345.667 185.717C344.303 186.503 343.187 187.66 342.319 189.189C341.492 190.677 341.079 192.455 341.079 194.521C341.079 196.588 341.492 198.407 342.319 199.977C343.187 201.507 344.303 202.685 345.667 203.511C347.072 204.338 348.56 204.751 350.131 204.751C351.743 204.751 353.252 204.359 354.657 203.573C356.062 202.747 357.178 201.589 358.005 200.101C358.832 198.572 359.245 196.753 359.245 194.645ZM380.867 173.379C379.337 173.379 378.056 172.904 377.023 171.953C376.031 170.961 375.535 169.742 375.535 168.295C375.535 166.849 376.031 165.65 377.023 164.699C378.056 163.707 379.337 163.211 380.867 163.211C382.396 163.211 383.657 163.707 384.649 164.699C385.682 165.65 386.199 166.849 386.199 168.295C386.199 169.742 385.682 170.961 384.649 171.953C383.657 172.904 382.396 173.379 380.867 173.379ZM385.145 177.471V211.819H376.465V177.471H385.145ZM412.754 176.975C416.846 176.975 420.153 178.277 422.674 180.881C425.196 183.444 426.456 187.04 426.456 191.669V211.819H417.776V192.847C417.776 190.119 417.094 188.032 415.73 186.585C414.366 185.097 412.506 184.353 410.15 184.353C407.753 184.353 405.852 185.097 404.446 186.585C403.082 188.032 402.4 190.119 402.4 192.847V211.819H393.72V177.471H402.4V181.749C403.558 180.261 405.025 179.104 406.802 178.277C408.621 177.409 410.605 176.975 412.754 176.975ZM448.165 176.913C450.727 176.913 452.98 177.43 454.923 178.463C456.865 179.455 458.395 180.757 459.511 182.369V177.471H468.253V212.067C468.253 215.25 467.612 218.081 466.331 220.561C465.049 223.083 463.127 225.067 460.565 226.513C458.002 228.001 454.902 228.745 451.265 228.745C446.387 228.745 442.378 227.609 439.237 225.335C436.137 223.062 434.38 219.962 433.967 216.035H442.585C443.039 217.606 444.011 218.846 445.499 219.755C447.028 220.706 448.867 221.181 451.017 221.181C453.538 221.181 455.584 220.417 457.155 218.887C458.725 217.399 459.511 215.126 459.511 212.067V206.735C458.395 208.347 456.845 209.691 454.861 210.765C452.918 211.84 450.686 212.377 448.165 212.377C445.271 212.377 442.626 211.633 440.229 210.145C437.831 208.657 435.93 206.57 434.525 203.883C433.161 201.155 432.479 198.035 432.479 194.521C432.479 191.049 433.161 187.97 434.525 185.283C435.93 182.597 437.811 180.53 440.167 179.083C442.564 177.637 445.23 176.913 448.165 176.913ZM459.511 194.645C459.511 192.537 459.097 190.739 458.271 189.251C457.444 187.722 456.328 186.565 454.923 185.779C453.517 184.953 452.009 184.539 450.397 184.539C448.785 184.539 447.297 184.932 445.933 185.717C444.569 186.503 443.453 187.66 442.585 189.189C441.758 190.677 441.345 192.455 441.345 194.521C441.345 196.588 441.758 198.407 442.585 199.977C443.453 201.507 444.569 202.685 445.933 203.511C447.338 204.338 448.826 204.751 450.397 204.751C452.009 204.751 453.517 204.359 454.923 203.573C456.328 202.747 457.444 201.589 458.271 200.101C459.097 198.572 459.511 196.753 459.511 194.645ZM489.396 190.119C489.396 185.862 490.346 182.059 492.248 178.711C494.19 175.322 496.815 172.697 500.122 170.837C503.47 168.936 507.21 167.985 511.344 167.985C516.18 167.985 520.416 169.225 524.054 171.705C527.691 174.185 530.233 177.616 531.68 181.997H521.698C520.706 179.931 519.3 178.381 517.482 177.347C515.704 176.314 513.638 175.797 511.282 175.797C508.76 175.797 506.508 176.397 504.524 177.595C502.581 178.753 501.052 180.406 499.936 182.555C498.861 184.705 498.324 187.226 498.324 190.119C498.324 192.971 498.861 195.493 499.936 197.683C501.052 199.833 502.581 201.507 504.524 202.705C506.508 203.863 508.76 204.441 511.282 204.441C513.638 204.441 515.704 203.925 517.482 202.891C519.3 201.817 520.706 200.246 521.698 198.179H531.68C530.233 202.602 527.691 206.053 524.054 208.533C520.458 210.972 516.221 212.191 511.344 212.191C507.21 212.191 503.47 211.261 500.122 209.401C496.815 207.5 494.19 204.875 492.248 201.527C490.346 198.179 489.396 194.377 489.396 190.119ZM547.773 165.939V211.819H539.093V165.939H547.773ZM588.775 177.471V211.819H580.033V207.479C578.917 208.967 577.45 210.145 575.631 211.013C573.854 211.84 571.911 212.253 569.803 212.253C567.117 212.253 564.74 211.695 562.673 210.579C560.607 209.422 558.974 207.748 557.775 205.557C556.618 203.325 556.039 200.68 556.039 197.621V177.471H564.719V196.381C564.719 199.109 565.401 201.217 566.765 202.705C568.129 204.152 569.989 204.875 572.345 204.875C574.743 204.875 576.623 204.152 577.987 202.705C579.351 201.217 580.033 199.109 580.033 196.381V177.471H588.775ZM606.02 182.493C607.136 180.84 608.665 179.497 610.608 178.463C612.592 177.43 614.844 176.913 617.366 176.913C620.3 176.913 622.946 177.637 625.302 179.083C627.699 180.53 629.58 182.597 630.944 185.283C632.349 187.929 633.052 191.008 633.052 194.521C633.052 198.035 632.349 201.155 630.944 203.883C629.58 206.57 627.699 208.657 625.302 210.145C622.946 211.633 620.3 212.377 617.366 212.377C614.803 212.377 612.55 211.881 610.608 210.889C608.706 209.856 607.177 208.533 606.02 206.921V211.819H597.34V165.939H606.02V182.493ZM624.186 194.521C624.186 192.455 623.752 190.677 622.884 189.189C622.057 187.66 620.941 186.503 619.536 185.717C618.172 184.932 616.684 184.539 615.072 184.539C613.501 184.539 612.013 184.953 610.608 185.779C609.244 186.565 608.128 187.722 607.26 189.251C606.433 190.781 606.02 192.579 606.02 194.645C606.02 196.712 606.433 198.51 607.26 200.039C608.128 201.569 609.244 202.747 610.608 203.573C612.013 204.359 613.501 204.751 615.072 204.751C616.684 204.751 618.172 204.338 619.536 203.511C620.941 202.685 622.057 201.507 622.884 199.977C623.752 198.448 624.186 196.629 624.186 194.521Z" fill="#8A8A8A"/>
<path d="M268.04 148.109H264.4L249.76 125.909V148.109H246.12V120.189H249.76L264.4 142.349V120.189H268.04V148.109ZM294.245 136.309C294.245 137.003 294.205 137.736 294.125 138.509H276.605C276.738 140.669 277.472 142.363 278.805 143.589C280.165 144.789 281.805 145.389 283.725 145.389C285.298 145.389 286.605 145.029 287.645 144.309C288.712 143.563 289.458 142.576 289.885 141.349H293.805C293.218 143.456 292.045 145.176 290.285 146.509C288.525 147.816 286.338 148.469 283.725 148.469C281.645 148.469 279.778 148.003 278.125 147.069C276.498 146.136 275.218 144.816 274.285 143.109C273.352 141.376 272.885 139.376 272.885 137.109C272.885 134.843 273.338 132.856 274.245 131.149C275.152 129.443 276.418 128.136 278.045 127.229C279.698 126.296 281.592 125.829 283.725 125.829C285.805 125.829 287.645 126.283 289.245 127.189C290.845 128.096 292.072 129.349 292.925 130.949C293.805 132.523 294.245 134.309 294.245 136.309ZM290.485 135.549C290.485 134.163 290.178 132.976 289.565 131.989C288.952 130.976 288.112 130.216 287.045 129.709C286.005 129.176 284.845 128.909 283.565 128.909C281.725 128.909 280.152 129.496 278.845 130.669C277.565 131.843 276.832 133.469 276.645 135.549H290.485ZM328.25 126.189L321.41 148.109H317.65L312.37 130.709L307.09 148.109H303.33L296.45 126.189H300.17L305.21 144.589L310.65 126.189H314.37L319.69 144.629L324.65 126.189H328.25ZM336.302 129.189V142.109C336.302 143.176 336.529 143.936 336.982 144.389C337.436 144.816 338.222 145.029 339.342 145.029H342.022V148.109H338.742C336.716 148.109 335.196 147.643 334.182 146.709C333.169 145.776 332.662 144.243 332.662 142.109V129.189H329.822V126.189H332.662V120.669H336.302V126.189H342.022V129.189H336.302ZM355.993 148.469C353.939 148.469 352.073 148.003 350.393 147.069C348.739 146.136 347.433 144.816 346.473 143.109C345.539 141.376 345.073 139.376 345.073 137.109C345.073 134.869 345.553 132.896 346.513 131.189C347.499 129.456 348.833 128.136 350.513 127.229C352.193 126.296 354.073 125.829 356.153 125.829C358.233 125.829 360.113 126.296 361.793 127.229C363.473 128.136 364.793 129.443 365.753 131.149C366.739 132.856 367.233 134.843 367.233 137.109C367.233 139.376 366.726 141.376 365.713 143.109C364.726 144.816 363.379 146.136 361.673 147.069C359.966 148.003 358.073 148.469 355.993 148.469ZM355.993 145.269C357.299 145.269 358.526 144.963 359.673 144.349C360.819 143.736 361.739 142.816 362.433 141.589C363.153 140.363 363.513 138.869 363.513 137.109C363.513 135.349 363.166 133.856 362.473 132.629C361.779 131.403 360.873 130.496 359.753 129.909C358.633 129.296 357.419 128.989 356.113 128.989C354.779 128.989 353.553 129.296 352.433 129.909C351.339 130.496 350.459 131.403 349.793 132.629C349.126 133.856 348.793 135.349 348.793 137.109C348.793 138.896 349.113 140.403 349.753 141.629C350.419 142.856 351.299 143.776 352.393 144.389C353.486 144.976 354.686 145.269 355.993 145.269ZM382.698 125.789C385.365 125.789 387.525 126.603 389.178 128.229C390.832 129.829 391.658 132.149 391.658 135.189V148.109H388.058V135.709C388.058 133.523 387.512 131.856 386.418 130.709C385.325 129.536 383.832 128.949 381.938 128.949C380.018 128.949 378.485 129.549 377.338 130.749C376.218 131.949 375.658 133.696 375.658 135.989V148.109H372.018V126.189H375.658V129.309C376.378 128.189 377.352 127.323 378.578 126.709C379.832 126.096 381.205 125.789 382.698 125.789ZM417.108 148.389C415.268 148.389 413.615 148.069 412.148 147.429C410.708 146.763 409.575 145.856 408.748 144.709C407.922 143.536 407.495 142.189 407.468 140.669H411.348C411.482 141.976 412.015 143.083 412.948 143.989C413.908 144.869 415.295 145.309 417.108 145.309C418.842 145.309 420.202 144.883 421.188 144.029C422.202 143.149 422.708 142.029 422.708 140.669C422.708 139.603 422.415 138.736 421.828 138.069C421.242 137.403 420.508 136.896 419.628 136.549C418.748 136.203 417.562 135.829 416.068 135.429C414.228 134.949 412.748 134.469 411.628 133.989C410.535 133.509 409.588 132.763 408.788 131.749C408.015 130.709 407.628 129.323 407.628 127.589C407.628 126.069 408.015 124.723 408.788 123.549C409.562 122.376 410.642 121.469 412.028 120.829C413.442 120.189 415.055 119.869 416.868 119.869C419.482 119.869 421.615 120.523 423.268 121.829C424.948 123.136 425.895 124.869 426.108 127.029H422.108C421.975 125.963 421.415 125.029 420.428 124.229C419.442 123.403 418.135 122.989 416.508 122.989C414.988 122.989 413.748 123.389 412.788 124.189C411.828 124.963 411.348 126.056 411.348 127.469C411.348 128.483 411.628 129.309 412.188 129.949C412.775 130.589 413.482 131.083 414.308 131.429C415.162 131.749 416.348 132.123 417.868 132.549C419.708 133.056 421.188 133.563 422.308 134.069C423.428 134.549 424.388 135.309 425.188 136.349C425.988 137.363 426.388 138.749 426.388 140.509C426.388 141.869 426.028 143.149 425.308 144.349C424.588 145.549 423.522 146.523 422.108 147.269C420.695 148.016 419.028 148.389 417.108 148.389ZM430.385 137.109C430.385 134.843 430.838 132.869 431.745 131.189C432.652 129.483 433.905 128.163 435.505 127.229C437.132 126.296 438.985 125.829 441.065 125.829C443.758 125.829 445.972 126.483 447.705 127.789C449.465 129.096 450.625 130.909 451.185 133.229H447.265C446.892 131.896 446.158 130.843 445.065 130.069C443.998 129.296 442.665 128.909 441.065 128.909C438.985 128.909 437.305 129.629 436.025 131.069C434.745 132.483 434.105 134.496 434.105 137.109C434.105 139.749 434.745 141.789 436.025 143.229C437.305 144.669 438.985 145.389 441.065 145.389C442.665 145.389 443.998 145.016 445.065 144.269C446.132 143.523 446.865 142.456 447.265 141.069H451.185C450.598 143.309 449.425 145.109 447.665 146.469C445.905 147.803 443.705 148.469 441.065 148.469C438.985 148.469 437.132 148.003 435.505 147.069C433.905 146.136 432.652 144.816 431.745 143.109C430.838 141.403 430.385 139.403 430.385 137.109ZM466.922 125.789C468.575 125.789 470.069 126.149 471.402 126.869C472.735 127.563 473.775 128.616 474.522 130.029C475.295 131.443 475.682 133.163 475.682 135.189V148.109H472.082V135.709C472.082 133.523 471.535 131.856 470.442 130.709C469.349 129.536 467.855 128.949 465.962 128.949C464.042 128.949 462.509 129.549 461.362 130.749C460.242 131.949 459.682 133.696 459.682 135.989V148.109H456.042V118.509H459.682V129.309C460.402 128.189 461.389 127.323 462.642 126.709C463.922 126.096 465.349 125.789 466.922 125.789ZM491.188 148.469C489.135 148.469 487.268 148.003 485.588 147.069C483.935 146.136 482.628 144.816 481.668 143.109C480.735 141.376 480.268 139.376 480.268 137.109C480.268 134.869 480.748 132.896 481.708 131.189C482.695 129.456 484.028 128.136 485.708 127.229C487.388 126.296 489.268 125.829 491.348 125.829C493.428 125.829 495.308 126.296 496.988 127.229C498.668 128.136 499.988 129.443 500.948 131.149C501.935 132.856 502.428 134.843 502.428 137.109C502.428 139.376 501.921 141.376 500.908 143.109C499.921 144.816 498.575 146.136 496.868 147.069C495.161 148.003 493.268 148.469 491.188 148.469ZM491.188 145.269C492.495 145.269 493.721 144.963 494.868 144.349C496.015 143.736 496.935 142.816 497.628 141.589C498.348 140.363 498.708 138.869 498.708 137.109C498.708 135.349 498.361 133.856 497.668 132.629C496.975 131.403 496.068 130.496 494.948 129.909C493.828 129.296 492.615 128.989 491.308 128.989C489.975 128.989 488.748 129.296 487.628 129.909C486.535 130.496 485.655 131.403 484.988 132.629C484.321 133.856 483.988 135.349 483.988 137.109C483.988 138.896 484.308 140.403 484.948 141.629C485.615 142.856 486.495 143.776 487.588 144.389C488.681 144.976 489.881 145.269 491.188 145.269ZM516.774 148.469C514.72 148.469 512.854 148.003 511.174 147.069C509.52 146.136 508.214 144.816 507.254 143.109C506.32 141.376 505.854 139.376 505.854 137.109C505.854 134.869 506.334 132.896 507.294 131.189C508.28 129.456 509.614 128.136 511.294 127.229C512.974 126.296 514.854 125.829 516.934 125.829C519.014 125.829 520.894 126.296 522.574 127.229C524.254 128.136 525.574 129.443 526.534 131.149C527.52 132.856 528.014 134.843 528.014 137.109C528.014 139.376 527.507 141.376 526.494 143.109C525.507 144.816 524.16 146.136 522.454 147.069C520.747 148.003 518.854 148.469 516.774 148.469ZM516.774 145.269C518.08 145.269 519.307 144.963 520.454 144.349C521.6 143.736 522.52 142.816 523.214 141.589C523.934 140.363 524.294 138.869 524.294 137.109C524.294 135.349 523.947 133.856 523.254 132.629C522.56 131.403 521.654 130.496 520.534 129.909C519.414 129.296 518.2 128.989 516.894 128.989C515.56 128.989 514.334 129.296 513.214 129.909C512.12 130.496 511.24 131.403 510.574 132.629C509.907 133.856 509.574 135.349 509.574 137.109C509.574 138.896 509.894 140.403 510.534 141.629C511.2 142.856 512.08 143.776 513.174 144.389C514.267 144.976 515.467 145.269 516.774 145.269ZM536.44 118.509V148.109H532.8V118.509H536.44Z" fill="#8A8A8A"/>
<defs>
<linearGradient id="paint0_linear_58_58" x1="277.891" y1="177.316" x2="794.086" y2="474.261" gradientUnits="userSpaceOnUse">
<stop stop-color="#7E9ACF"/>
<stop offset="0.541668" stop-color="#78C7CE"/>
<stop offset="1" stop-color="#69CDD5" stop-opacity="0.58"/>
</linearGradient>
</defs>
</svg>
